M48
INCH,TZ
T1C0.0157
T2C0.0315
T3C0.0354
T4C0.0394
T5C0.0433
T6C0.0472
%
G90
G05
T1
X30000Y-43346
X38465Y-45591
X43307Y-37047
X44291Y-41496
T2
X25898Y-45543
X25898Y-46543
X25898Y-47543
X25898Y-48543
X28898Y-45543
X28898Y-46543
X28898Y-47543
X28898Y-48543
X30906Y-23756
X30906Y-27756
X32480Y-48102
X32480Y-51102
X32874Y-23098
X32874Y-27098
X33480Y-48102
X33480Y-51102
X34480Y-48102
X34480Y-51102
X35480Y-48102
X35480Y-51102
X36480Y-48102
X36480Y-51102
X37480Y-48102
X37480Y-51102
X37567Y-34350
X38228Y-53740
X38480Y-48102
X38480Y-51102
X39480Y-48102
X39480Y-51102
X40197Y-53740
X40480Y-48102
X40480Y-51102
X41480Y-48102
X41480Y-51102
X41567Y-34350
X42480Y-48102
X42480Y-51102
X43480Y-48102
X43480Y-51102
X44480Y-48102
X44480Y-51102
X45480Y-48102
X45480Y-51102
X45768Y-23165
X45768Y-27165
X47736Y-23756
X47736Y-27756
X48780Y-49646
X48780Y-53646
X56024Y-43402
X56024Y-47402
T3
X18128Y-38152
X18157Y-37653
X18186Y-37154
X18215Y-36655
X18659Y-44475
X18813Y-44951
X18966Y-45426
X19120Y-45902
X20003Y-30567
X20210Y-30112
X20417Y-29657
X20625Y-29202
X21900Y-51604
X22215Y-51992
X22531Y-52380
X22846Y-52768
X24491Y-24170
X24848Y-23820
X25205Y-23470
X25563Y-23120
X27496Y-57082
X27930Y-57331
X28364Y-57579
X28798Y-57828
X30985Y-19830
X31445Y-19633
X31904Y-19436
X32364Y-19239
X34696Y-60170
X35191Y-60245
X35685Y-60320
X36179Y-60394
X36260Y-37441
X36260Y-41772
X36760Y-37441
X36760Y-41772
X37260Y-37441
X37260Y-41772
X37760Y-37441
X37760Y-41772
X41024Y-37441
X41024Y-41772
X41524Y-37441
X41524Y-41772
X42024Y-37441
X42024Y-41772
X42522Y-60449
X42524Y-37441
X42524Y-41772
X43010Y-60340
X43498Y-60231
X43986Y-60122
X46338Y-19294
X46810Y-19459
X47282Y-19623
X47754Y-19788
X49924Y-57881
X50339Y-57603
X50755Y-57324
X51170Y-57046
X53119Y-23170
X53500Y-23494
X53881Y-23818
X54261Y-24142
X55892Y-52811
X56180Y-52402
X56467Y-51993
X56755Y-51584
X58042Y-29238
X58281Y-29678
X58520Y-30117
X58758Y-30557
X59632Y-45931
X59752Y-45446
X59873Y-44960
X59993Y-44475
X60441Y-36675
X60505Y-37171
X60568Y-37667
X60632Y-38163
T4
X32343Y-54370
X35295Y-54370
X35876Y-30620
X36876Y-30620
X37876Y-30620
X38876Y-30620
X39876Y-30620
X40876Y-30620
X41876Y-30620
X42876Y-30620
X43169Y-54370
X44980Y-45719
X45677Y-33433
X45677Y-34433
X45677Y-35433
X45980Y-45719
X46122Y-54370
X49104Y-43199
X49104Y-44199
X49104Y-45199
X50104Y-43199
X50104Y-44199
X50104Y-45199
X53228Y-43199
X53228Y-44199
T5
X51181Y-47441
X51181Y-49213
X53740Y-47441
X53740Y-49213
T6
X33189Y-33622
X33189Y-44646
T0
M30
