%TF.GenerationSoftware,KiCad,Pcbnew,(6.0.9)*%
%TF.CreationDate,2022-12-09T09:09:42+01:00*%
%TF.ProjectId,afm_saucer,61666d5f-7361-4756-9365-722e6b696361,1.1*%
%TF.SameCoordinates,Original*%
%TF.FileFunction,Soldermask,Bot*%
%TF.FilePolarity,Negative*%
%FSLAX46Y46*%
G04 Gerber Fmt 4.6, Leading zero omitted, Abs format (unit mm)*
G04 Created by KiCad (PCBNEW (6.0.9)) date 2022-12-09 09:09:42*
%MOMM*%
%LPD*%
G01*
G04 APERTURE LIST*
G04 Aperture macros list*
%AMHorizOval*
0 Thick line with rounded ends*
0 $1 width*
0 $2 $3 position (X,Y) of the first rounded end (center of the circle)*
0 $4 $5 position (X,Y) of the second rounded end (center of the circle)*
0 Add line between two ends*
20,1,$1,$2,$3,$4,$5,0*
0 Add two circle primitives to create the rounded ends*
1,1,$1,$2,$3*
1,1,$1,$4,$5*%
%AMRotRect*
0 Rectangle, with rotation*
0 The origin of the aperture is its center*
0 $1 length*
0 $2 width*
0 $3 Rotation angle, in degrees counterclockwise*
0 Add horizontal line*
21,1,$1,$2,0,0,$3*%
G04 Aperture macros list end*
%ADD10RotRect,1.070000X1.800000X213.800000*%
%ADD11HorizOval,1.070000X-0.203048X0.303309X0.203048X-0.303309X0*%
%ADD12C,1.600000*%
%ADD13O,1.600000X1.600000*%
%ADD14RotRect,1.070000X1.800000X129.100000*%
%ADD15HorizOval,1.070000X0.283257X0.230197X-0.283257X-0.230197X0*%
%ADD16R,1.070000X1.800000*%
%ADD17O,1.070000X1.800000*%
%ADD18RotRect,1.070000X1.800000X340.800000*%
%ADD19HorizOval,1.070000X-0.120036X-0.344697X0.120036X0.344697X0*%
%ADD20RotRect,1.070000X1.800000X107.900000*%
%ADD21HorizOval,1.070000X0.347332X0.112185X-0.347332X-0.112185X0*%
%ADD22C,2.000000*%
%ADD23R,1.700000X1.700000*%
%ADD24O,1.700000X1.700000*%
%ADD25RotRect,1.070000X1.800000X256.100000*%
%ADD26HorizOval,1.070000X-0.354312X0.087683X0.354312X-0.087683X0*%
%ADD27RotRect,1.070000X1.800000X23.200000*%
%ADD28HorizOval,1.070000X-0.143789X0.335484X0.143789X-0.335484X0*%
%ADD29RotRect,1.070000X1.800000X171.400000*%
%ADD30HorizOval,1.070000X0.054580X0.360896X-0.054580X-0.360896X0*%
%ADD31R,1.800000X1.800000*%
%ADD32C,1.800000*%
%ADD33RotRect,1.070000X1.800000X150.200000*%
%ADD34HorizOval,1.070000X0.181395X0.316734X-0.181395X-0.316734X0*%
%ADD35RotRect,1.700000X1.700000X42.000000*%
%ADD36HorizOval,1.700000X0.000000X0.000000X0.000000X0.000000X0*%
%ADD37RotRect,1.070000X1.800000X298.500000*%
%ADD38HorizOval,1.070000X-0.320768X-0.174163X0.320768X0.174163X0*%
%ADD39RotRect,1.070000X1.800000X44.400000*%
%ADD40HorizOval,1.070000X-0.255377X0.260783X0.255377X-0.260783X0*%
%ADD41R,1.600000X1.600000*%
%ADD42RotRect,1.070000X1.800000X277.300000*%
%ADD43HorizOval,1.070000X-0.362041X-0.046379X0.362041X0.046379X0*%
%ADD44R,2.400000X2.400000*%
%ADD45O,2.400000X2.400000*%
%ADD46RotRect,1.070000X1.800000X192.600000*%
%ADD47HorizOval,1.070000X-0.079622X0.356210X0.079622X-0.356210X0*%
%ADD48RotRect,1.070000X1.800000X319.600000*%
%ADD49HorizOval,1.070000X-0.236564X-0.277961X0.236564X0.277961X0*%
%ADD50RotRect,1.070000X1.800000X65.500000*%
%ADD51HorizOval,1.070000X-0.332136X0.151363X0.332136X-0.151363X0*%
%ADD52RotRect,1.070000X1.800000X86.700000*%
%ADD53HorizOval,1.070000X-0.364395X0.021011X0.364395X-0.021011X0*%
%ADD54RotRect,1.070000X1.800000X234.900000*%
%ADD55HorizOval,1.070000X-0.298625X0.209877X0.298625X-0.209877X0*%
%ADD56C,1.500000*%
G04 APERTURE END LIST*
%TO.C,G\u002A\u002A\u002A*%
G36*
X69130039Y-90947730D02*
G01*
X69131088Y-91057501D01*
X69122817Y-91138094D01*
X69101891Y-91209426D01*
X69064977Y-91291416D01*
X68980725Y-91425408D01*
X68852295Y-91542760D01*
X68689092Y-91618999D01*
X68604849Y-91639539D01*
X68453748Y-91655949D01*
X68296585Y-91653065D01*
X68148132Y-91632368D01*
X68023159Y-91595341D01*
X67936437Y-91543467D01*
X67930160Y-91537406D01*
X67883675Y-91465524D01*
X67884026Y-91383006D01*
X67931027Y-91280769D01*
X67935661Y-91273221D01*
X67976314Y-91218228D01*
X68019106Y-91199617D01*
X68088137Y-91205908D01*
X68213920Y-91225503D01*
X68338781Y-91240088D01*
X68429773Y-91242423D01*
X68497853Y-91232624D01*
X68553977Y-91210805D01*
X68564743Y-91205055D01*
X68618561Y-91169236D01*
X68640473Y-91141741D01*
X68640065Y-91140541D01*
X68608450Y-91130658D01*
X68533736Y-91121323D01*
X68426239Y-91113537D01*
X68296276Y-91108303D01*
X68291049Y-91108165D01*
X68149833Y-91103984D01*
X68052307Y-91098737D01*
X67987823Y-91090202D01*
X67945734Y-91076153D01*
X67915395Y-91054366D01*
X67886158Y-91022617D01*
X67862732Y-90992213D01*
X67829554Y-90916108D01*
X67820236Y-90812728D01*
X67820497Y-90788105D01*
X67824202Y-90757172D01*
X68293182Y-90757172D01*
X68293498Y-90822417D01*
X68297937Y-90831362D01*
X68327088Y-90852985D01*
X68387278Y-90864012D01*
X68490200Y-90867097D01*
X68517896Y-90867063D01*
X68601524Y-90865257D01*
X68643069Y-90858014D01*
X68652672Y-90841648D01*
X68640473Y-90812473D01*
X68586767Y-90746556D01*
X68498891Y-90694077D01*
X68405762Y-90680758D01*
X68336668Y-90705136D01*
X68293182Y-90757172D01*
X67824202Y-90757172D01*
X67837076Y-90649703D01*
X67885710Y-90536255D01*
X67975102Y-90426029D01*
X68031106Y-90376002D01*
X68154981Y-90307733D01*
X68308000Y-90273453D01*
X68498804Y-90270595D01*
X68557949Y-90275957D01*
X68745583Y-90324900D01*
X68905189Y-90420644D01*
X69036075Y-90562814D01*
X69048553Y-90580839D01*
X69086175Y-90644091D01*
X69108891Y-90708303D01*
X69121455Y-90791361D01*
X69124462Y-90841648D01*
X69128617Y-90911152D01*
X69130039Y-90947730D01*
G37*
G36*
X60458689Y-90273558D02*
G01*
X60630579Y-90298630D01*
X60756456Y-90347650D01*
X60840810Y-90424505D01*
X60888130Y-90533079D01*
X60902906Y-90677258D01*
X60890220Y-90815502D01*
X60844181Y-90936048D01*
X60759638Y-91029724D01*
X60631546Y-91101943D01*
X60454862Y-91158118D01*
X60426456Y-91165310D01*
X60327753Y-91195642D01*
X60282168Y-91221904D01*
X60288629Y-91245160D01*
X60346067Y-91266476D01*
X60433250Y-91264868D01*
X60557961Y-91222393D01*
X60607198Y-91201237D01*
X60711898Y-91165584D01*
X60787004Y-91160971D01*
X60844335Y-91188312D01*
X60895708Y-91248523D01*
X60935827Y-91319461D01*
X60951621Y-91406406D01*
X60915866Y-91479619D01*
X60827184Y-91545050D01*
X60800510Y-91558610D01*
X60689653Y-91601692D01*
X60581113Y-91628596D01*
X60422230Y-91640421D01*
X60254273Y-91627649D01*
X60104200Y-91590777D01*
X59983549Y-91532737D01*
X59903854Y-91456462D01*
X59882793Y-91417049D01*
X59849916Y-91300489D01*
X59841938Y-91170207D01*
X59861542Y-91051879D01*
X59865227Y-91041120D01*
X59912826Y-90948336D01*
X59986745Y-90877294D01*
X60096432Y-90821247D01*
X60251334Y-90773446D01*
X60288486Y-90763584D01*
X60385612Y-90733411D01*
X60455725Y-90705083D01*
X60485650Y-90683649D01*
X60486653Y-90666017D01*
X60455911Y-90639673D01*
X60389752Y-90629978D01*
X60299808Y-90637736D01*
X60197713Y-90663752D01*
X60048477Y-90714424D01*
X59983745Y-90639249D01*
X59975985Y-90630010D01*
X59918424Y-90538163D01*
X59897876Y-90454068D01*
X59917673Y-90390282D01*
X59933889Y-90374087D01*
X60017773Y-90327216D01*
X60138170Y-90292518D01*
X60281614Y-90273075D01*
X60434643Y-90271967D01*
X60458689Y-90273558D01*
G37*
G36*
X74131675Y-91181849D02*
G01*
X74128116Y-91316047D01*
X74122702Y-91415503D01*
X74115319Y-91472083D01*
X74082400Y-91543558D01*
X74024978Y-91598597D01*
X73957365Y-91617563D01*
X73860803Y-91618409D01*
X73767215Y-91599746D01*
X73701515Y-91564219D01*
X73687149Y-91551369D01*
X73651866Y-91541544D01*
X73600804Y-91567436D01*
X73567910Y-91583088D01*
X73473456Y-91602841D01*
X73359511Y-91606899D01*
X73248044Y-91595241D01*
X73161030Y-91567848D01*
X73152230Y-91563160D01*
X73003970Y-91453010D01*
X72889953Y-91307055D01*
X72816735Y-91136215D01*
X72793396Y-90969448D01*
X73241076Y-90969448D01*
X73257570Y-91022224D01*
X73310929Y-91084904D01*
X73332835Y-91105721D01*
X73412566Y-91157112D01*
X73488406Y-91158462D01*
X73571877Y-91110921D01*
X73599817Y-91084650D01*
X73642345Y-91003502D01*
X73642945Y-90916560D01*
X73606608Y-90837513D01*
X73538328Y-90780047D01*
X73443096Y-90757850D01*
X73369196Y-90769948D01*
X73292999Y-90826132D01*
X73246809Y-90927861D01*
X73241076Y-90969448D01*
X72793396Y-90969448D01*
X72790871Y-90951407D01*
X72804867Y-90798029D01*
X72859351Y-90645491D01*
X72961213Y-90501620D01*
X73025136Y-90438455D01*
X73160959Y-90349198D01*
X73308182Y-90300202D01*
X73455246Y-90294524D01*
X73590593Y-90335218D01*
X73671259Y-90376887D01*
X73671259Y-90062729D01*
X73671461Y-89962840D01*
X73673439Y-89859442D01*
X73679247Y-89792493D01*
X73690935Y-89751307D01*
X73710552Y-89725199D01*
X73740148Y-89703482D01*
X73757957Y-89693921D01*
X73839837Y-89673852D01*
X73937820Y-89671858D01*
X74029030Y-89686974D01*
X74090590Y-89718237D01*
X74099168Y-89752484D01*
X74107141Y-89833410D01*
X74114291Y-89952785D01*
X74120503Y-90102475D01*
X74125664Y-90274350D01*
X74129658Y-90460276D01*
X74132371Y-90652122D01*
X74133688Y-90841754D01*
X74133607Y-90916560D01*
X74133494Y-91021040D01*
X74131675Y-91181849D01*
G37*
G36*
X72462159Y-90293809D02*
G01*
X72519081Y-90298099D01*
X72561683Y-90312695D01*
X72591918Y-90343927D01*
X72611741Y-90398127D01*
X72623105Y-90481624D01*
X72627964Y-90600749D01*
X72628272Y-90761833D01*
X72625983Y-90971206D01*
X72618622Y-91561975D01*
X72550269Y-91597972D01*
X72489747Y-91617328D01*
X72391044Y-91621460D01*
X72294621Y-91603060D01*
X72225248Y-91564668D01*
X72214949Y-91551649D01*
X72202499Y-91521546D01*
X72193456Y-91472652D01*
X72187312Y-91397800D01*
X72183555Y-91289827D01*
X72181675Y-91141567D01*
X72181162Y-90945855D01*
X72181199Y-90831000D01*
X72182378Y-90652339D01*
X72186973Y-90518435D01*
X72197315Y-90422834D01*
X72215737Y-90359085D01*
X72244568Y-90320734D01*
X72286141Y-90301329D01*
X72342786Y-90294418D01*
X72416835Y-90293549D01*
X72462159Y-90293809D01*
G37*
G36*
X71681615Y-89845866D02*
G01*
X71761989Y-89865761D01*
X71810036Y-89912250D01*
X71833317Y-89994391D01*
X71839397Y-90121242D01*
X71839410Y-90137595D01*
X71841302Y-90224580D01*
X71849785Y-90271231D01*
X71869678Y-90290053D01*
X71905797Y-90293549D01*
X71942368Y-90296652D01*
X72008503Y-90330870D01*
X72046177Y-90406261D01*
X72058127Y-90527020D01*
X72057930Y-90554546D01*
X72051729Y-90634659D01*
X72032316Y-90682817D01*
X71993626Y-90716872D01*
X71939535Y-90741101D01*
X71887837Y-90743262D01*
X71872936Y-90741904D01*
X71858547Y-90759719D01*
X71848357Y-90807317D01*
X71840791Y-90892978D01*
X71834276Y-91024981D01*
X71831805Y-91079946D01*
X71823132Y-91207000D01*
X71810324Y-91297019D01*
X71791010Y-91363064D01*
X71762813Y-91418196D01*
X71698871Y-91491230D01*
X71583709Y-91565530D01*
X71442949Y-91613717D01*
X71370400Y-91626481D01*
X71237409Y-91627941D01*
X71143450Y-91591742D01*
X71087687Y-91517414D01*
X71069286Y-91404490D01*
X71071807Y-91342317D01*
X71093452Y-91255434D01*
X71141745Y-91208750D01*
X71222099Y-91194839D01*
X71256304Y-91193566D01*
X71316306Y-91177411D01*
X71352355Y-91135221D01*
X71369952Y-91057636D01*
X71374596Y-90935297D01*
X71374596Y-90741304D01*
X71222057Y-90742749D01*
X71114420Y-90734922D01*
X71040801Y-90701520D01*
X71002687Y-90634650D01*
X70991819Y-90526556D01*
X71000358Y-90428389D01*
X71037428Y-90348903D01*
X71110268Y-90306243D01*
X71225769Y-90293549D01*
X71374596Y-90293549D01*
X71374596Y-90121242D01*
X71377069Y-90031874D01*
X71393681Y-89935612D01*
X71432497Y-89878068D01*
X71501081Y-89850185D01*
X71606996Y-89842903D01*
X71681615Y-89845866D01*
G37*
G36*
X70303532Y-89679723D02*
G01*
X70457472Y-89735612D01*
X70576039Y-89833081D01*
X70658494Y-89971480D01*
X70704096Y-90150162D01*
X70705925Y-90163309D01*
X70721666Y-90243730D01*
X70742897Y-90283110D01*
X70775655Y-90293549D01*
X70800198Y-90296043D01*
X70870293Y-90334983D01*
X70918930Y-90411662D01*
X70937136Y-90513839D01*
X70936201Y-90552357D01*
X70917862Y-90654386D01*
X70873908Y-90712260D01*
X70801485Y-90730538D01*
X70722441Y-90730538D01*
X70713588Y-91129035D01*
X70712434Y-91179896D01*
X70708480Y-91321400D01*
X70703330Y-91420431D01*
X70695456Y-91486381D01*
X70683328Y-91528644D01*
X70665416Y-91556613D01*
X70640189Y-91579680D01*
X70611887Y-91598234D01*
X70513716Y-91627647D01*
X70405913Y-91624928D01*
X70314372Y-91589312D01*
X70305610Y-91582983D01*
X70284526Y-91562821D01*
X70270070Y-91533659D01*
X70260997Y-91486372D01*
X70256060Y-91411836D01*
X70254011Y-91300926D01*
X70253606Y-91144519D01*
X70253606Y-90742243D01*
X70100311Y-90742243D01*
X70089998Y-90742196D01*
X69980972Y-90731126D01*
X69913941Y-90694474D01*
X69880147Y-90623328D01*
X69870828Y-90508774D01*
X69870865Y-90500458D01*
X69882033Y-90397845D01*
X69919215Y-90334529D01*
X69991255Y-90302451D01*
X70106998Y-90293549D01*
X70192414Y-90292216D01*
X70236326Y-90283734D01*
X70250828Y-90261382D01*
X70248586Y-90218441D01*
X70247889Y-90212727D01*
X70234147Y-90166602D01*
X70197948Y-90142163D01*
X70123192Y-90127769D01*
X70039432Y-90111590D01*
X69979998Y-90078760D01*
X69948227Y-90017974D01*
X69932149Y-89915961D01*
X69932447Y-89818540D01*
X69965498Y-89731388D01*
X70037533Y-89681364D01*
X70151256Y-89665377D01*
X70303532Y-89679723D01*
G37*
G36*
X69571307Y-90293704D02*
G01*
X69626538Y-90297566D01*
X69667656Y-90311447D01*
X69696621Y-90341717D01*
X69715397Y-90394749D01*
X69725945Y-90476915D01*
X69730226Y-90594587D01*
X69730204Y-90754138D01*
X69727839Y-90961939D01*
X69720452Y-91561975D01*
X69652099Y-91597972D01*
X69600339Y-91615189D01*
X69504156Y-91622012D01*
X69407490Y-91608453D01*
X69336602Y-91576316D01*
X69330268Y-91569500D01*
X69318266Y-91542076D01*
X69309379Y-91492848D01*
X69303191Y-91415253D01*
X69299287Y-91302729D01*
X69297249Y-91148715D01*
X69296663Y-90946649D01*
X69296649Y-90786555D01*
X69297733Y-90618427D01*
X69302114Y-90493605D01*
X69312012Y-90405651D01*
X69329651Y-90348125D01*
X69357251Y-90314590D01*
X69397035Y-90298608D01*
X69451224Y-90293741D01*
X69522040Y-90293549D01*
X69571307Y-90293704D01*
G37*
G36*
X67514201Y-89666234D02*
G01*
X67566295Y-89673038D01*
X67605353Y-89691866D01*
X67633384Y-89728803D01*
X67652397Y-89789933D01*
X67664402Y-89881340D01*
X67671408Y-90009108D01*
X67675425Y-90179322D01*
X67678462Y-90398065D01*
X67680169Y-90561850D01*
X67679988Y-90818973D01*
X67674587Y-91029271D01*
X67662791Y-91197703D01*
X67643424Y-91329226D01*
X67615312Y-91428796D01*
X67577278Y-91501373D01*
X67528147Y-91551912D01*
X67466743Y-91585373D01*
X67391893Y-91606711D01*
X67333161Y-91616001D01*
X67224666Y-91621914D01*
X67121777Y-91616011D01*
X67040666Y-91599629D01*
X66997504Y-91574106D01*
X66982172Y-91526790D01*
X66974204Y-91445079D01*
X66975755Y-91353860D01*
X66986338Y-91274312D01*
X67005468Y-91227613D01*
X67032951Y-91209630D01*
X67095694Y-91194839D01*
X67121167Y-91193966D01*
X67152110Y-91186644D01*
X67175719Y-91166765D01*
X67192982Y-91128320D01*
X67204889Y-91065300D01*
X67212427Y-90971696D01*
X67216588Y-90841497D01*
X67218359Y-90668695D01*
X67218729Y-90447280D01*
X67218734Y-90371721D01*
X67219285Y-90160607D01*
X67221917Y-89996404D01*
X67228270Y-89873217D01*
X67239987Y-89785152D01*
X67258709Y-89726316D01*
X67286077Y-89690814D01*
X67323733Y-89672753D01*
X67373317Y-89666238D01*
X67436471Y-89665377D01*
X67447060Y-89665370D01*
X67514201Y-89666234D01*
G37*
G36*
X66791197Y-91272974D02*
G01*
X66693618Y-91415551D01*
X66564081Y-91524201D01*
X66408659Y-91590432D01*
X66350139Y-91601879D01*
X66224578Y-91607211D01*
X66111012Y-91589082D01*
X66029031Y-91549599D01*
X66021141Y-91543327D01*
X65985005Y-91531231D01*
X65949865Y-91564748D01*
X65925434Y-91588375D01*
X65866848Y-91609041D01*
X65769309Y-91615021D01*
X65766064Y-91615018D01*
X65674280Y-91609873D01*
X65616593Y-91590599D01*
X65573490Y-91550796D01*
X65570327Y-91546816D01*
X65556542Y-91525733D01*
X65545725Y-91498028D01*
X65537592Y-91457702D01*
X65531862Y-91398755D01*
X65528251Y-91315187D01*
X65526475Y-91200998D01*
X65526253Y-91050189D01*
X65526891Y-90932496D01*
X66010607Y-90932496D01*
X66025702Y-91021985D01*
X66086998Y-91106076D01*
X66108902Y-91124370D01*
X66187429Y-91162356D01*
X66264491Y-91149433D01*
X66348705Y-91084904D01*
X66389949Y-91039514D01*
X66416898Y-90985891D01*
X66412824Y-90927861D01*
X66382307Y-90849520D01*
X66314311Y-90780813D01*
X66216537Y-90757850D01*
X66195248Y-90758697D01*
X66100106Y-90788146D01*
X66036983Y-90850314D01*
X66010607Y-90932496D01*
X65526891Y-90932496D01*
X65527301Y-90856761D01*
X65529336Y-90614713D01*
X65529940Y-90548831D01*
X65532270Y-90320010D01*
X65534784Y-90138519D01*
X65537873Y-89998534D01*
X65541926Y-89894231D01*
X65547335Y-89819786D01*
X65554488Y-89769376D01*
X65563776Y-89737177D01*
X65575589Y-89717365D01*
X65590317Y-89704116D01*
X65648833Y-89678666D01*
X65746663Y-89666777D01*
X65848148Y-89676615D01*
X65927608Y-89707893D01*
X65940389Y-89717373D01*
X65962516Y-89741302D01*
X65976558Y-89777243D01*
X65984335Y-89835847D01*
X65987668Y-89927764D01*
X65988374Y-90063648D01*
X65988374Y-90376887D01*
X66069040Y-90335218D01*
X66139228Y-90307511D01*
X66282276Y-90291985D01*
X66430863Y-90321198D01*
X66573430Y-90392095D01*
X66698420Y-90501620D01*
X66795544Y-90636412D01*
X66849859Y-90779868D01*
X66866932Y-90949514D01*
X66863144Y-90985891D01*
X66850747Y-91104962D01*
X66791197Y-91272974D01*
G37*
G36*
X64562500Y-89666276D02*
G01*
X64614248Y-89673217D01*
X64653032Y-89692264D01*
X64680848Y-89729490D01*
X64699691Y-89790966D01*
X64711555Y-89882766D01*
X64718435Y-90010962D01*
X64722327Y-90181627D01*
X64725225Y-90400834D01*
X64726892Y-90572699D01*
X64726494Y-90827782D01*
X64720954Y-91036208D01*
X64709093Y-91202954D01*
X64689728Y-91332993D01*
X64661680Y-91431300D01*
X64623768Y-91502851D01*
X64574811Y-91552620D01*
X64513629Y-91585581D01*
X64439040Y-91606711D01*
X64380308Y-91616001D01*
X64271814Y-91621914D01*
X64168925Y-91616011D01*
X64087813Y-91599629D01*
X64044651Y-91574106D01*
X64029320Y-91526790D01*
X64021351Y-91445079D01*
X64022902Y-91353860D01*
X64033486Y-91274312D01*
X64052615Y-91227613D01*
X64080098Y-91209630D01*
X64142841Y-91194839D01*
X64168314Y-91193966D01*
X64199258Y-91186644D01*
X64222866Y-91166765D01*
X64240130Y-91128320D01*
X64252036Y-91065300D01*
X64259575Y-90971696D01*
X64263735Y-90841497D01*
X64265506Y-90668695D01*
X64265877Y-90447280D01*
X64265882Y-90371721D01*
X64266432Y-90160607D01*
X64269064Y-89996404D01*
X64275418Y-89873217D01*
X64287135Y-89785152D01*
X64305857Y-89726316D01*
X64333225Y-89690814D01*
X64370880Y-89672753D01*
X64420464Y-89666238D01*
X64483618Y-89665377D01*
X64495793Y-89665368D01*
X64562500Y-89666276D01*
G37*
G36*
X63912707Y-91132239D02*
G01*
X63905403Y-91156908D01*
X63832008Y-91309336D01*
X63721412Y-91442646D01*
X63585546Y-91545008D01*
X63436337Y-91604593D01*
X63409525Y-91609661D01*
X63260683Y-91608003D01*
X63115035Y-91561181D01*
X63088650Y-91548882D01*
X63041899Y-91540734D01*
X63003244Y-91566529D01*
X62965412Y-91587711D01*
X62884140Y-91605441D01*
X62788140Y-91610300D01*
X62699577Y-91601558D01*
X62640617Y-91578484D01*
X62630344Y-91566741D01*
X62618541Y-91537789D01*
X62609927Y-91488527D01*
X62604038Y-91412093D01*
X62600408Y-91301627D01*
X62598571Y-91150267D01*
X62598143Y-90982654D01*
X63066681Y-90982654D01*
X63103276Y-91066435D01*
X63190936Y-91135754D01*
X63239837Y-91158647D01*
X63289650Y-91162340D01*
X63349946Y-91134539D01*
X63426308Y-91071814D01*
X63468349Y-90986937D01*
X63462236Y-90897312D01*
X63406063Y-90813820D01*
X63389163Y-90799163D01*
X63298539Y-90755588D01*
X63207631Y-90764064D01*
X63125909Y-90824238D01*
X63082466Y-90890703D01*
X63066681Y-90982654D01*
X62598143Y-90982654D01*
X62598062Y-90951151D01*
X62598107Y-90901434D01*
X62599626Y-90694682D01*
X62603455Y-90537743D01*
X62609800Y-90426669D01*
X62618870Y-90357512D01*
X62630871Y-90326323D01*
X62677368Y-90303534D01*
X62761438Y-90292387D01*
X62858130Y-90296332D01*
X62946411Y-90314306D01*
X63005251Y-90345246D01*
X63030390Y-90368668D01*
X63063503Y-90381141D01*
X63098904Y-90355089D01*
X63121200Y-90339189D01*
X63200121Y-90312798D01*
X63304150Y-90299536D01*
X63413684Y-90301118D01*
X63509121Y-90319254D01*
X63513607Y-90320789D01*
X63607876Y-90371711D01*
X63710178Y-90454074D01*
X63803363Y-90552159D01*
X63870281Y-90650248D01*
X63895861Y-90713039D01*
X63924980Y-90850249D01*
X63930850Y-90986937D01*
X63931348Y-90998526D01*
X63912707Y-91132239D01*
G37*
G36*
X62403049Y-91235198D02*
G01*
X62398320Y-91361050D01*
X62390656Y-91453718D01*
X62379352Y-91518763D01*
X62363703Y-91561744D01*
X62343004Y-91588220D01*
X62316551Y-91603752D01*
X62283638Y-91613897D01*
X62245714Y-91620275D01*
X62151969Y-91618456D01*
X62062036Y-91598949D01*
X62000959Y-91565997D01*
X61976167Y-91545476D01*
X61939867Y-91541306D01*
X61881170Y-91566658D01*
X61816267Y-91589604D01*
X61699713Y-91606057D01*
X61576591Y-91603605D01*
X61473274Y-91581300D01*
X61418173Y-91554187D01*
X61307758Y-91470178D01*
X61206684Y-91358636D01*
X61131241Y-91236006D01*
X61127928Y-91228796D01*
X61074372Y-91047921D01*
X61074194Y-90996567D01*
X61537958Y-90996567D01*
X61579601Y-91081401D01*
X61639828Y-91131267D01*
X61731260Y-91154663D01*
X61824558Y-91130717D01*
X61906826Y-91060262D01*
X61934876Y-91000985D01*
X61932761Y-90916650D01*
X61894093Y-90838222D01*
X61826996Y-90780391D01*
X61739595Y-90757850D01*
X61655840Y-90775143D01*
X61582888Y-90829665D01*
X61541323Y-90908064D01*
X61537958Y-90996567D01*
X61074194Y-90996567D01*
X61073736Y-90864442D01*
X61125130Y-90685005D01*
X61227663Y-90516253D01*
X61319715Y-90424949D01*
X61452025Y-90345178D01*
X61596191Y-90300721D01*
X61738862Y-90295408D01*
X61866684Y-90333065D01*
X61941873Y-90372245D01*
X61941873Y-90073434D01*
X61944021Y-89938743D01*
X61954822Y-89819491D01*
X61978797Y-89740343D01*
X62020396Y-89693485D01*
X62084071Y-89671101D01*
X62174273Y-89665377D01*
X62178214Y-89665388D01*
X62282484Y-89678683D01*
X62351991Y-89720000D01*
X62357467Y-89725648D01*
X62371553Y-89744010D01*
X62382662Y-89769389D01*
X62391147Y-89807735D01*
X62397360Y-89865000D01*
X62401652Y-89947135D01*
X62404378Y-90060089D01*
X62405888Y-90209815D01*
X62406536Y-90402262D01*
X62406673Y-90643382D01*
X62406520Y-90861705D01*
X62405871Y-91000985D01*
X62405547Y-91070603D01*
X62403049Y-91235198D01*
G37*
G36*
X72481204Y-89673013D02*
G01*
X72571526Y-89707893D01*
X72576756Y-89711655D01*
X72611391Y-89748904D01*
X72628013Y-89804960D01*
X72632292Y-89897527D01*
X72632250Y-89910217D01*
X72626874Y-89997834D01*
X72608524Y-90050914D01*
X72571526Y-90087161D01*
X72490674Y-90120088D01*
X72379646Y-90127661D01*
X72268379Y-90104338D01*
X72215915Y-90060294D01*
X72184696Y-89982993D01*
X72176629Y-89889954D01*
X72191065Y-89797764D01*
X72227359Y-89723011D01*
X72284861Y-89682286D01*
X72365147Y-89668161D01*
X72481204Y-89673013D01*
G37*
G36*
X69560321Y-89672567D02*
G01*
X69568731Y-89673543D01*
X69654757Y-89691094D01*
X69704620Y-89726163D01*
X69727678Y-89790918D01*
X69733285Y-89897527D01*
X69732566Y-89944864D01*
X69722839Y-90030758D01*
X69697713Y-90081292D01*
X69652099Y-90109770D01*
X69628624Y-90117055D01*
X69532780Y-90127171D01*
X69433045Y-90116490D01*
X69357429Y-90087161D01*
X69351411Y-90082812D01*
X69317247Y-90045588D01*
X69300872Y-89989398D01*
X69296663Y-89896608D01*
X69296709Y-89888268D01*
X69311682Y-89774979D01*
X69357089Y-89704256D01*
X69438209Y-89671614D01*
X69560321Y-89672567D01*
G37*
G36*
X75196626Y-88453765D02*
G01*
X75170714Y-88498706D01*
X75060515Y-88638859D01*
X74925506Y-88753881D01*
X74781713Y-88829265D01*
X74766159Y-88833126D01*
X74739475Y-88836889D01*
X74700340Y-88840378D01*
X74646915Y-88843601D01*
X74577367Y-88846566D01*
X74489857Y-88849281D01*
X74382551Y-88851755D01*
X74253612Y-88853996D01*
X74101204Y-88856012D01*
X73923491Y-88857811D01*
X73718637Y-88859403D01*
X73484806Y-88860794D01*
X73220162Y-88861994D01*
X72922868Y-88863010D01*
X72591089Y-88863851D01*
X72222988Y-88864525D01*
X71816730Y-88865041D01*
X71370477Y-88865406D01*
X70882396Y-88865629D01*
X70350648Y-88865719D01*
X69773398Y-88865683D01*
X69148811Y-88865529D01*
X68475049Y-88865267D01*
X67750277Y-88864904D01*
X66972658Y-88864449D01*
X59276103Y-88859678D01*
X59135628Y-88785662D01*
X59085221Y-88755717D01*
X58981058Y-88677954D01*
X58895776Y-88595672D01*
X58884997Y-88583707D01*
X58867838Y-88566704D01*
X58851871Y-88551991D01*
X58837054Y-88537671D01*
X58823344Y-88521847D01*
X58810699Y-88502621D01*
X58799075Y-88478097D01*
X58788431Y-88446377D01*
X58778723Y-88405565D01*
X58769908Y-88353763D01*
X58761944Y-88289073D01*
X58754788Y-88209600D01*
X58748398Y-88113446D01*
X58742731Y-87998713D01*
X58737743Y-87863505D01*
X58736216Y-87808172D01*
X60219375Y-87808172D01*
X60656835Y-87808172D01*
X61969214Y-87808172D01*
X62406673Y-87808172D01*
X62406673Y-87371183D01*
X61969214Y-87371183D01*
X61969214Y-87808172D01*
X60656835Y-87808172D01*
X60656835Y-87371183D01*
X60219375Y-87371183D01*
X60219375Y-87808172D01*
X58736216Y-87808172D01*
X58733393Y-87705924D01*
X58729638Y-87524074D01*
X58726434Y-87316057D01*
X58723739Y-87079976D01*
X58721511Y-86813934D01*
X58719707Y-86516033D01*
X58719626Y-86497205D01*
X59781916Y-86497205D01*
X60219375Y-86497205D01*
X60219375Y-86060215D01*
X59781916Y-86060215D01*
X59781916Y-86497205D01*
X58719626Y-86497205D01*
X58718284Y-86184378D01*
X58717199Y-85817070D01*
X58716821Y-85623226D01*
X59781916Y-85623226D01*
X60219375Y-85623226D01*
X60219375Y-86060215D01*
X60656835Y-86060215D01*
X60656835Y-85623226D01*
X61094294Y-85623226D01*
X61094294Y-86497205D01*
X60656835Y-86497205D01*
X60656835Y-87371183D01*
X61969214Y-87371183D01*
X61969214Y-86934194D01*
X62844133Y-86934194D01*
X62844133Y-86497205D01*
X64156512Y-86497205D01*
X64156512Y-87371183D01*
X62844133Y-87371183D01*
X62844133Y-87808172D01*
X64593972Y-87808172D01*
X64593972Y-87371183D01*
X65468891Y-87371183D01*
X65468891Y-86497205D01*
X66781270Y-86497205D01*
X66781270Y-86934194D01*
X65906350Y-86934194D01*
X65906350Y-87808172D01*
X66343810Y-87808172D01*
X66343810Y-87371183D01*
X66781270Y-87371183D01*
X66781270Y-87808172D01*
X67218729Y-87808172D01*
X67656189Y-87808172D01*
X69406028Y-87808172D01*
X69843487Y-87808172D01*
X70280947Y-87808172D01*
X71155866Y-87808172D01*
X74218084Y-87808172D01*
X74218084Y-84749248D01*
X71155866Y-84749248D01*
X71155866Y-87808172D01*
X70280947Y-87808172D01*
X70280947Y-87371183D01*
X69843487Y-87371183D01*
X69843487Y-87808172D01*
X69406028Y-87808172D01*
X69406028Y-86497205D01*
X68968568Y-86497205D01*
X68968568Y-86934194D01*
X68093649Y-86934194D01*
X68093649Y-87371183D01*
X67656189Y-87371183D01*
X67656189Y-87808172D01*
X67218729Y-87808172D01*
X67218729Y-87371183D01*
X67656189Y-87371183D01*
X67656189Y-86060215D01*
X68093649Y-86060215D01*
X68093649Y-85623226D01*
X68531108Y-85623226D01*
X68531108Y-85186237D01*
X68968568Y-85186237D01*
X68968568Y-85623226D01*
X69406028Y-85623226D01*
X69406028Y-86060215D01*
X69843487Y-86060215D01*
X69843487Y-86497205D01*
X70280947Y-86497205D01*
X70280947Y-87371183D01*
X70718406Y-87371183D01*
X70718406Y-84312258D01*
X70280947Y-84312258D01*
X70280947Y-84749248D01*
X69843487Y-84749248D01*
X69843487Y-84312258D01*
X68968568Y-84312258D01*
X68968568Y-83875269D01*
X70280947Y-83875269D01*
X70280947Y-83438280D01*
X70718406Y-83438280D01*
X70718406Y-83875269D01*
X71155866Y-83875269D01*
X71155866Y-84312258D01*
X71593326Y-84312258D01*
X72030785Y-84312258D01*
X74218084Y-84312258D01*
X74218084Y-82564301D01*
X73343164Y-82564301D01*
X73343164Y-83001291D01*
X73780624Y-83001291D01*
X73780624Y-84312258D01*
X72905705Y-84312258D01*
X72905705Y-83875269D01*
X72030785Y-83875269D01*
X72030785Y-84312258D01*
X71593326Y-84312258D01*
X71593326Y-83875269D01*
X72030785Y-83875269D01*
X72030785Y-83438280D01*
X71593326Y-83438280D01*
X71593326Y-83001291D01*
X72468245Y-83001291D01*
X72468245Y-82564301D01*
X73343164Y-82564301D01*
X73343164Y-82127312D01*
X72030785Y-82127312D01*
X72030785Y-81690323D01*
X72468245Y-81690323D01*
X72905705Y-81690323D01*
X73780624Y-81690323D01*
X73780624Y-82127312D01*
X74218084Y-82127312D01*
X74218084Y-81690323D01*
X73780624Y-81690323D01*
X73780624Y-81253334D01*
X74218084Y-81253334D01*
X74218084Y-80816344D01*
X73780624Y-80816344D01*
X73780624Y-81253334D01*
X72905705Y-81253334D01*
X72905705Y-81690323D01*
X72468245Y-81690323D01*
X72468245Y-80816344D01*
X73780624Y-80816344D01*
X73780624Y-80379355D01*
X74218084Y-80379355D01*
X74218084Y-79505377D01*
X73780624Y-79505377D01*
X73780624Y-79068387D01*
X74218084Y-79068387D01*
X74218084Y-78631398D01*
X73780624Y-78631398D01*
X73780624Y-79068387D01*
X73343164Y-79068387D01*
X73343164Y-78194409D01*
X73780624Y-78194409D01*
X73780624Y-77757420D01*
X74218084Y-77757420D01*
X74218084Y-77320430D01*
X73780624Y-77320430D01*
X73780624Y-76883441D01*
X70718406Y-76883441D01*
X70718406Y-77320430D01*
X70280947Y-77320430D01*
X70280947Y-76883441D01*
X69843487Y-76883441D01*
X69843487Y-76009463D01*
X70280947Y-76009463D01*
X70280947Y-76446452D01*
X70718406Y-76446452D01*
X71155866Y-76446452D01*
X74218084Y-76446452D01*
X74218084Y-73387527D01*
X71155866Y-73387527D01*
X71155866Y-76446452D01*
X70718406Y-76446452D01*
X70718406Y-75135484D01*
X70280947Y-75135484D01*
X70280947Y-75572473D01*
X69843487Y-75572473D01*
X69843487Y-74261506D01*
X69406028Y-74261506D01*
X69406028Y-73824516D01*
X69843487Y-73824516D01*
X70718406Y-73824516D01*
X70718406Y-73387527D01*
X69843487Y-73387527D01*
X69843487Y-73824516D01*
X69406028Y-73824516D01*
X69406028Y-73387527D01*
X68093649Y-73387527D01*
X68093649Y-73824516D01*
X67656189Y-73824516D01*
X67656189Y-74261506D01*
X67218729Y-74261506D01*
X67218729Y-73387527D01*
X66343810Y-73387527D01*
X66343810Y-74261506D01*
X65906350Y-74261506D01*
X65906350Y-74698495D01*
X65031431Y-74698495D01*
X65031431Y-74261506D01*
X64156512Y-74261506D01*
X64156512Y-75135484D01*
X63719052Y-75135484D01*
X63719052Y-75572473D01*
X64156512Y-75572473D01*
X64156512Y-75135484D01*
X64593972Y-75135484D01*
X64593972Y-75572473D01*
X65031431Y-75572473D01*
X65031431Y-76446452D01*
X64593972Y-76446452D01*
X64593972Y-76009463D01*
X64156512Y-76009463D01*
X64156512Y-76446452D01*
X63719052Y-76446452D01*
X63719052Y-76009463D01*
X63281593Y-76009463D01*
X63281593Y-76446452D01*
X63719052Y-76446452D01*
X63719052Y-77757420D01*
X63281593Y-77757420D01*
X63281593Y-78194409D01*
X62406673Y-78194409D01*
X62406673Y-78631398D01*
X63719052Y-78631398D01*
X63719052Y-79068387D01*
X64156512Y-79068387D01*
X64156512Y-79942366D01*
X64593972Y-79942366D01*
X64593972Y-80379355D01*
X63281593Y-80379355D01*
X63281593Y-79505377D01*
X62844133Y-79505377D01*
X62844133Y-79068387D01*
X62406673Y-79068387D01*
X62406673Y-79505377D01*
X61531754Y-79505377D01*
X61531754Y-79068387D01*
X61969214Y-79068387D01*
X61969214Y-77757420D01*
X62844133Y-77757420D01*
X62844133Y-77320430D01*
X62406673Y-77320430D01*
X62406673Y-76883441D01*
X61531754Y-76883441D01*
X61531754Y-77320430D01*
X60656835Y-77320430D01*
X60656835Y-77757420D01*
X60219375Y-77757420D01*
X60219375Y-76883441D01*
X59781916Y-76883441D01*
X59781916Y-77757420D01*
X60219375Y-77757420D01*
X60219375Y-79068387D01*
X59781916Y-79068387D01*
X59781916Y-79505377D01*
X60219375Y-79505377D01*
X60219375Y-79942366D01*
X60656835Y-79942366D01*
X60656835Y-80379355D01*
X61531754Y-80379355D01*
X61531754Y-80816344D01*
X60656835Y-80816344D01*
X60656835Y-81253334D01*
X60219375Y-81253334D01*
X60219375Y-80379355D01*
X59781916Y-80379355D01*
X59781916Y-81253334D01*
X60219375Y-81253334D01*
X60219375Y-82127312D01*
X59781916Y-82127312D01*
X59781916Y-83001291D01*
X60219375Y-83001291D01*
X60219375Y-83438280D01*
X59781916Y-83438280D01*
X59781916Y-84749248D01*
X60219375Y-84749248D01*
X60219375Y-85186237D01*
X59781916Y-85186237D01*
X59781916Y-85623226D01*
X58716821Y-85623226D01*
X58716409Y-85412213D01*
X58715872Y-84967909D01*
X58715546Y-84482261D01*
X58715387Y-83953372D01*
X58715352Y-83379346D01*
X58715400Y-82758284D01*
X58715487Y-82088290D01*
X58715570Y-81367467D01*
X58715608Y-80593917D01*
X58715608Y-76446452D01*
X59781916Y-76446452D01*
X62844133Y-76446452D01*
X62844133Y-73824516D01*
X63719052Y-73824516D01*
X64156512Y-73824516D01*
X64593972Y-73824516D01*
X65031431Y-73824516D01*
X65031431Y-74261506D01*
X65468891Y-74261506D01*
X65468891Y-73824516D01*
X65906350Y-73824516D01*
X65906350Y-73387527D01*
X64593972Y-73387527D01*
X64593972Y-73824516D01*
X64156512Y-73824516D01*
X64156512Y-73387527D01*
X63719052Y-73387527D01*
X63719052Y-73824516D01*
X62844133Y-73824516D01*
X62844133Y-73387527D01*
X59781916Y-73387527D01*
X59781916Y-76446452D01*
X58715608Y-76446452D01*
X58715608Y-72979899D01*
X58773875Y-72821831D01*
X58830865Y-72703974D01*
X58940088Y-72559759D01*
X59074933Y-72443031D01*
X59222026Y-72367353D01*
X59229136Y-72365149D01*
X59248126Y-72360774D01*
X59274256Y-72356705D01*
X59309430Y-72352932D01*
X59355548Y-72349443D01*
X59414513Y-72346228D01*
X59488225Y-72343275D01*
X59578587Y-72340574D01*
X59687500Y-72338113D01*
X59816866Y-72335881D01*
X59968586Y-72333868D01*
X60144563Y-72332062D01*
X60346697Y-72330452D01*
X60576890Y-72329028D01*
X60837045Y-72327778D01*
X61129062Y-72326692D01*
X61454843Y-72325757D01*
X61816291Y-72324964D01*
X62215306Y-72324301D01*
X62653791Y-72323758D01*
X63133646Y-72323322D01*
X63656774Y-72322984D01*
X64225076Y-72322732D01*
X64840454Y-72322555D01*
X65504810Y-72322443D01*
X66220044Y-72322383D01*
X66988060Y-72322366D01*
X67475093Y-72322372D01*
X68209453Y-72322413D01*
X68892233Y-72322501D01*
X69525338Y-72322648D01*
X70110677Y-72322864D01*
X70650156Y-72323162D01*
X71145683Y-72323552D01*
X71599164Y-72324045D01*
X72012507Y-72324653D01*
X72387619Y-72325387D01*
X72726407Y-72326257D01*
X73030778Y-72327276D01*
X73302639Y-72328454D01*
X73543897Y-72329802D01*
X73756460Y-72331332D01*
X73942234Y-72333055D01*
X74103126Y-72334982D01*
X74241045Y-72337123D01*
X74357896Y-72339492D01*
X74455587Y-72342097D01*
X74536026Y-72344952D01*
X74601118Y-72348066D01*
X74652772Y-72351451D01*
X74692894Y-72355118D01*
X74723391Y-72359079D01*
X74746171Y-72363344D01*
X74763141Y-72367925D01*
X74839088Y-72398808D01*
X74984990Y-72490028D01*
X75115125Y-72609833D01*
X75210346Y-72742197D01*
X75270721Y-72854947D01*
X75270721Y-88313441D01*
X75196626Y-88453765D01*
G37*
G36*
X71593326Y-87371183D02*
G01*
X71593326Y-86934194D01*
X72030785Y-86934194D01*
X73343164Y-86934194D01*
X73343164Y-85623226D01*
X72030785Y-85623226D01*
X72030785Y-86934194D01*
X71593326Y-86934194D01*
X71593326Y-85186237D01*
X73780624Y-85186237D01*
X73780624Y-87371183D01*
X71593326Y-87371183D01*
G37*
G36*
X67218729Y-87371183D02*
G01*
X66781270Y-87371183D01*
X66781270Y-86934194D01*
X67218729Y-86934194D01*
X67218729Y-87371183D01*
G37*
G36*
X65031431Y-86934194D02*
G01*
X64593972Y-86934194D01*
X64593972Y-86497205D01*
X64156512Y-86497205D01*
X64156512Y-86060215D01*
X64593972Y-86060215D01*
X64593972Y-85623226D01*
X65031431Y-85623226D01*
X65031431Y-86934194D01*
G37*
G36*
X64156512Y-86060215D02*
G01*
X63719052Y-86060215D01*
X63719052Y-85623226D01*
X64156512Y-85623226D01*
X64156512Y-86060215D01*
G37*
G36*
X61969214Y-86934194D02*
G01*
X61094294Y-86934194D01*
X61094294Y-86497205D01*
X61969214Y-86497205D01*
X61969214Y-86934194D01*
G37*
G36*
X62844133Y-86497205D02*
G01*
X61969214Y-86497205D01*
X61969214Y-86060215D01*
X62844133Y-86060215D01*
X62844133Y-86497205D01*
G37*
G36*
X70280947Y-86060215D02*
G01*
X69843487Y-86060215D01*
X69843487Y-85623226D01*
X69406028Y-85623226D01*
X69406028Y-85186237D01*
X70280947Y-85186237D01*
X70280947Y-86060215D01*
G37*
G36*
X67218729Y-86060215D02*
G01*
X65906350Y-86060215D01*
X65906350Y-85623226D01*
X67218729Y-85623226D01*
X67218729Y-86060215D01*
G37*
G36*
X68531108Y-85186237D02*
G01*
X67656189Y-85186237D01*
X67656189Y-85623226D01*
X67218729Y-85623226D01*
X67218729Y-84749248D01*
X68531108Y-84749248D01*
X68531108Y-85186237D01*
G37*
G36*
X65906350Y-85623226D02*
G01*
X65468891Y-85623226D01*
X65468891Y-84749248D01*
X65906350Y-84749248D01*
X65906350Y-85623226D01*
G37*
G36*
X60656835Y-83875269D02*
G01*
X61531754Y-83875269D01*
X61531754Y-85186237D01*
X61094294Y-85186237D01*
X61094294Y-84312258D01*
X60656835Y-84312258D01*
X60656835Y-84749248D01*
X60219375Y-84749248D01*
X60219375Y-83438280D01*
X60656835Y-83438280D01*
X60656835Y-83875269D01*
G37*
G36*
X64593972Y-84749248D02*
G01*
X65031431Y-84749248D01*
X65031431Y-85186237D01*
X64156512Y-85186237D01*
X64156512Y-84312258D01*
X64593972Y-84312258D01*
X64593972Y-84749248D01*
G37*
G36*
X64156512Y-84312258D02*
G01*
X63719052Y-84312258D01*
X63719052Y-83875269D01*
X64156512Y-83875269D01*
X64156512Y-84312258D01*
G37*
G36*
X63719052Y-83875269D02*
G01*
X63281593Y-83875269D01*
X63281593Y-83438280D01*
X63719052Y-83438280D01*
X63719052Y-83875269D01*
G37*
G36*
X67656189Y-82564301D02*
G01*
X66781270Y-82564301D01*
X66781270Y-82127312D01*
X67656189Y-82127312D01*
X67656189Y-82564301D01*
G37*
G36*
X63719052Y-81253334D02*
G01*
X62844133Y-81253334D01*
X62844133Y-80816344D01*
X63719052Y-80816344D01*
X63719052Y-81253334D01*
G37*
G36*
X64593972Y-81253334D02*
G01*
X64156512Y-81253334D01*
X64156512Y-80816344D01*
X64593972Y-80816344D01*
X64593972Y-81253334D01*
G37*
G36*
X62844133Y-80816344D02*
G01*
X62406673Y-80816344D01*
X62406673Y-80379355D01*
X62844133Y-80379355D01*
X62844133Y-80816344D01*
G37*
G36*
X65468891Y-80816344D02*
G01*
X64593972Y-80816344D01*
X64593972Y-80379355D01*
X65468891Y-80379355D01*
X65468891Y-80816344D01*
G37*
G36*
X65468891Y-83438280D02*
G01*
X65468891Y-83875269D01*
X65906350Y-83875269D01*
X65906350Y-83438280D01*
X66343810Y-83438280D01*
X66343810Y-83875269D01*
X67218729Y-83875269D01*
X67218729Y-83001291D01*
X67656189Y-83001291D01*
X67656189Y-82564301D01*
X68093649Y-82564301D01*
X68093649Y-83438280D01*
X67656189Y-83438280D01*
X67656189Y-83875269D01*
X68531108Y-83875269D01*
X68531108Y-84312258D01*
X65468891Y-84312258D01*
X65468891Y-84749248D01*
X65031431Y-84749248D01*
X65031431Y-84312258D01*
X64593972Y-84312258D01*
X64593972Y-83875269D01*
X65031431Y-83875269D01*
X65031431Y-83438280D01*
X63719052Y-83438280D01*
X63719052Y-83001291D01*
X64156512Y-83001291D01*
X64593972Y-83001291D01*
X65031431Y-83001291D01*
X65031431Y-82564301D01*
X64593972Y-82564301D01*
X64593972Y-83001291D01*
X64156512Y-83001291D01*
X64156512Y-82564301D01*
X63719052Y-82564301D01*
X63719052Y-83001291D01*
X62844133Y-83001291D01*
X62844133Y-82564301D01*
X62406673Y-82564301D01*
X62406673Y-83001291D01*
X62844133Y-83001291D01*
X62844133Y-83438280D01*
X61969214Y-83438280D01*
X61969214Y-83875269D01*
X61531754Y-83875269D01*
X61531754Y-83438280D01*
X61094294Y-83438280D01*
X61094294Y-83001291D01*
X61531754Y-83001291D01*
X61531754Y-82564301D01*
X62406673Y-82564301D01*
X62406673Y-82127312D01*
X62844133Y-82127312D01*
X62844133Y-82564301D01*
X63719052Y-82564301D01*
X63719052Y-82127312D01*
X63281593Y-82127312D01*
X63281593Y-81690323D01*
X63719052Y-81690323D01*
X63719052Y-81253334D01*
X64156512Y-81253334D01*
X64156512Y-82564301D01*
X64593972Y-82564301D01*
X64593972Y-82127312D01*
X65468891Y-82127312D01*
X65468891Y-82564301D01*
X66343810Y-82564301D01*
X66343810Y-83001291D01*
X66781270Y-83001291D01*
X66781270Y-83438280D01*
X66343810Y-83438280D01*
X66343810Y-83001291D01*
X65906350Y-83001291D01*
X65906350Y-83438280D01*
X65468891Y-83438280D01*
G37*
G36*
X61969214Y-85623226D02*
G01*
X61969214Y-85186237D01*
X62406673Y-85186237D01*
X62844133Y-85186237D01*
X62844133Y-84749248D01*
X62406673Y-84749248D01*
X62406673Y-85186237D01*
X61969214Y-85186237D01*
X61969214Y-84312258D01*
X63281593Y-84312258D01*
X63281593Y-85623226D01*
X61969214Y-85623226D01*
G37*
G36*
X60656835Y-85623226D02*
G01*
X60219375Y-85623226D01*
X60219375Y-85186237D01*
X60656835Y-85186237D01*
X60656835Y-85623226D01*
G37*
G36*
X71593326Y-83875269D02*
G01*
X71155866Y-83875269D01*
X71155866Y-83438280D01*
X71593326Y-83438280D01*
X71593326Y-83875269D01*
G37*
G36*
X69843487Y-83438280D02*
G01*
X68968568Y-83438280D01*
X68968568Y-83001291D01*
X69843487Y-83001291D01*
X69843487Y-83438280D01*
G37*
G36*
X68968568Y-83001291D02*
G01*
X68531108Y-83001291D01*
X68531108Y-82564301D01*
X68968568Y-82564301D01*
X68968568Y-83001291D01*
G37*
G36*
X71593326Y-82564301D02*
G01*
X71593326Y-83001291D01*
X71155866Y-83001291D01*
X71155866Y-82564301D01*
X71593326Y-82564301D01*
G37*
G36*
X71593326Y-82127312D02*
G01*
X71155866Y-82127312D01*
X71155866Y-82564301D01*
X70718406Y-82564301D01*
X70718406Y-83001291D01*
X70280947Y-83001291D01*
X70280947Y-82127312D01*
X70718406Y-82127312D01*
X70718406Y-81690323D01*
X71593326Y-81690323D01*
X71593326Y-82127312D01*
G37*
G36*
X72030785Y-82127312D02*
G01*
X72030785Y-82564301D01*
X71593326Y-82564301D01*
X71593326Y-82127312D01*
X72030785Y-82127312D01*
G37*
G36*
X68968568Y-80816344D02*
G01*
X69406028Y-80816344D01*
X69406028Y-81253334D01*
X69843487Y-81253334D01*
X69843487Y-82564301D01*
X68968568Y-82564301D01*
X68968568Y-81253334D01*
X68531108Y-81253334D01*
X68531108Y-80816344D01*
X68093649Y-80816344D01*
X68093649Y-80379355D01*
X68968568Y-80379355D01*
X68968568Y-80816344D01*
G37*
G36*
X70718406Y-81690323D02*
G01*
X70280947Y-81690323D01*
X70280947Y-81253334D01*
X70718406Y-81253334D01*
X70718406Y-81690323D01*
G37*
G36*
X70280947Y-81253334D02*
G01*
X69843487Y-81253334D01*
X69843487Y-80816344D01*
X70280947Y-80816344D01*
X70280947Y-81253334D01*
G37*
G36*
X68093649Y-80379355D02*
G01*
X67656189Y-80379355D01*
X67656189Y-79942366D01*
X68093649Y-79942366D01*
X68093649Y-80379355D01*
G37*
G36*
X73343164Y-79505377D02*
G01*
X73780624Y-79505377D01*
X73780624Y-80379355D01*
X72468245Y-80379355D01*
X72468245Y-79942366D01*
X72905705Y-79942366D01*
X72905705Y-79068387D01*
X73343164Y-79068387D01*
X73343164Y-79505377D01*
G37*
G36*
X71155866Y-79942366D02*
G01*
X70718406Y-79942366D01*
X70718406Y-79505377D01*
X71155866Y-79505377D01*
X71155866Y-79942366D01*
G37*
G36*
X72030785Y-78631398D02*
G01*
X72030785Y-79068387D01*
X72468245Y-79068387D01*
X72468245Y-79505377D01*
X71155866Y-79505377D01*
X71155866Y-79068387D01*
X70280947Y-79068387D01*
X70280947Y-78194409D01*
X70718406Y-78194409D01*
X70718406Y-78631398D01*
X71155866Y-78631398D01*
X71155866Y-78194409D01*
X71593326Y-78194409D01*
X71593326Y-78631398D01*
X71155866Y-78631398D01*
X71155866Y-79068387D01*
X71593326Y-79068387D01*
X71593326Y-78631398D01*
X72030785Y-78631398D01*
G37*
G36*
X72905705Y-79068387D02*
G01*
X72468245Y-79068387D01*
X72468245Y-78631398D01*
X72905705Y-78631398D01*
X72905705Y-79068387D01*
G37*
G36*
X72030785Y-78194409D02*
G01*
X71593326Y-78194409D01*
X71593326Y-77757420D01*
X72030785Y-77757420D01*
X72030785Y-78194409D01*
G37*
G36*
X71593326Y-77757420D02*
G01*
X71155866Y-77757420D01*
X71155866Y-77320430D01*
X71593326Y-77320430D01*
X71593326Y-77757420D01*
G37*
G36*
X65031431Y-75135484D02*
G01*
X64593972Y-75135484D01*
X64593972Y-74698495D01*
X65031431Y-74698495D01*
X65031431Y-75135484D01*
G37*
G36*
X69406028Y-75135484D02*
G01*
X68968568Y-75135484D01*
X68968568Y-74698495D01*
X69406028Y-74698495D01*
X69406028Y-75135484D01*
G37*
G36*
X71593326Y-80379355D02*
G01*
X72030785Y-80379355D01*
X72030785Y-81253334D01*
X71155866Y-81253334D01*
X71155866Y-80816344D01*
X70718406Y-80816344D01*
X70718406Y-80379355D01*
X71155866Y-80379355D01*
X71155866Y-79942366D01*
X71593326Y-79942366D01*
X71593326Y-80379355D01*
X71155866Y-80379355D01*
X71155866Y-80816344D01*
X71593326Y-80816344D01*
X71593326Y-80379355D01*
G37*
G36*
X70280947Y-80379355D02*
G01*
X68968568Y-80379355D01*
X68968568Y-79942366D01*
X68531108Y-79942366D01*
X68531108Y-79505377D01*
X67656189Y-79505377D01*
X67656189Y-79068387D01*
X67218729Y-79068387D01*
X67218729Y-79505377D01*
X66781270Y-79505377D01*
X66781270Y-79068387D01*
X66343810Y-79068387D01*
X66343810Y-78631398D01*
X65906350Y-78631398D01*
X65906350Y-78194409D01*
X65468891Y-78194409D01*
X65468891Y-78631398D01*
X65906350Y-78631398D01*
X65906350Y-79068387D01*
X66343810Y-79068387D01*
X66343810Y-79505377D01*
X65468891Y-79505377D01*
X65468891Y-79068387D01*
X65031431Y-79068387D01*
X65031431Y-79505377D01*
X65468891Y-79505377D01*
X65468891Y-79942366D01*
X64593972Y-79942366D01*
X64593972Y-78631398D01*
X65031431Y-78631398D01*
X65031431Y-77757420D01*
X65906350Y-77757420D01*
X65906350Y-78194409D01*
X66343810Y-78194409D01*
X66343810Y-77320430D01*
X66781270Y-77320430D01*
X66781270Y-78631398D01*
X67656189Y-78631398D01*
X67656189Y-78194409D01*
X68093649Y-78194409D01*
X68531108Y-78194409D01*
X68531108Y-77757420D01*
X68968568Y-77757420D01*
X68968568Y-79068387D01*
X68531108Y-79068387D01*
X68531108Y-79505377D01*
X68968568Y-79505377D01*
X68968568Y-79942366D01*
X69406028Y-79942366D01*
X69406028Y-77757420D01*
X68968568Y-77757420D01*
X68968568Y-77320430D01*
X68531108Y-77320430D01*
X68531108Y-77757420D01*
X68093649Y-77757420D01*
X68093649Y-78194409D01*
X67656189Y-78194409D01*
X67218729Y-78194409D01*
X67218729Y-77320430D01*
X68093649Y-77320430D01*
X68093649Y-76009463D01*
X67656189Y-76009463D01*
X67656189Y-75572473D01*
X68093649Y-75572473D01*
X68093649Y-73824516D01*
X68968568Y-73824516D01*
X68968568Y-74261506D01*
X68531108Y-74261506D01*
X68531108Y-75135484D01*
X68968568Y-75135484D01*
X68968568Y-75572473D01*
X69843487Y-75572473D01*
X69843487Y-76009463D01*
X69406028Y-76009463D01*
X69406028Y-76446452D01*
X68968568Y-76446452D01*
X68968568Y-76009463D01*
X68531108Y-76009463D01*
X68531108Y-75572473D01*
X68093649Y-75572473D01*
X68093649Y-76009463D01*
X68531108Y-76009463D01*
X68531108Y-76446452D01*
X68968568Y-76446452D01*
X68968568Y-76883441D01*
X69843487Y-76883441D01*
X69843487Y-79068387D01*
X70280947Y-79068387D01*
X70280947Y-79505377D01*
X69843487Y-79505377D01*
X69843487Y-79942366D01*
X70280947Y-79942366D01*
X70280947Y-80379355D01*
G37*
G36*
X67656189Y-76446452D02*
G01*
X67218729Y-76446452D01*
X67218729Y-76009463D01*
X67656189Y-76009463D01*
X67656189Y-76446452D01*
G37*
G36*
X66343810Y-76883441D02*
G01*
X66343810Y-76009463D01*
X65906350Y-76009463D01*
X65906350Y-76883441D01*
X66343810Y-76883441D01*
X66343810Y-77320430D01*
X64593972Y-77320430D01*
X64593972Y-78194409D01*
X64156512Y-78194409D01*
X64156512Y-78631398D01*
X63719052Y-78631398D01*
X63719052Y-77757420D01*
X64156512Y-77757420D01*
X64156512Y-76446452D01*
X64593972Y-76446452D01*
X64593972Y-76883441D01*
X65031431Y-76883441D01*
X65031431Y-76446452D01*
X65468891Y-76446452D01*
X65468891Y-75572473D01*
X65906350Y-75572473D01*
X66343810Y-75572473D01*
X66343810Y-75135484D01*
X65906350Y-75135484D01*
X65906350Y-75572473D01*
X65468891Y-75572473D01*
X65031431Y-75572473D01*
X65031431Y-75135484D01*
X65906350Y-75135484D01*
X65906350Y-74698495D01*
X66781270Y-74698495D01*
X66781270Y-76883441D01*
X66343810Y-76883441D01*
G37*
G36*
X61094294Y-82564301D02*
G01*
X60656835Y-82564301D01*
X60656835Y-83001291D01*
X60219375Y-83001291D01*
X60219375Y-82127312D01*
X61094294Y-82127312D01*
X61094294Y-82564301D01*
G37*
G36*
X66343810Y-82127312D02*
G01*
X65906350Y-82127312D01*
X65906350Y-81690323D01*
X66343810Y-81690323D01*
X66343810Y-82127312D01*
G37*
G36*
X65906350Y-81690323D02*
G01*
X65468891Y-81690323D01*
X65468891Y-81253334D01*
X65906350Y-81253334D01*
X65906350Y-81690323D01*
G37*
G36*
X66343810Y-80379355D02*
G01*
X66781270Y-80379355D01*
X66781270Y-79942366D01*
X67218729Y-79942366D01*
X67218729Y-80816344D01*
X66343810Y-80816344D01*
X66343810Y-81253334D01*
X65906350Y-81253334D01*
X65906350Y-79942366D01*
X66343810Y-79942366D01*
X66343810Y-80379355D01*
G37*
G36*
X68093649Y-81690323D02*
G01*
X67656189Y-81690323D01*
X67656189Y-81253334D01*
X68093649Y-81253334D01*
X68093649Y-81690323D01*
G37*
G36*
X61531754Y-81690323D02*
G01*
X61094294Y-81690323D01*
X61094294Y-81253334D01*
X61531754Y-81253334D01*
X61531754Y-81690323D01*
G37*
G36*
X61969214Y-81253334D02*
G01*
X61531754Y-81253334D01*
X61531754Y-80816344D01*
X61969214Y-80816344D01*
X61969214Y-81253334D01*
G37*
G36*
X61969214Y-80379355D02*
G01*
X61531754Y-80379355D01*
X61531754Y-79942366D01*
X61969214Y-79942366D01*
X61969214Y-80379355D01*
G37*
G36*
X61531754Y-79942366D02*
G01*
X61094294Y-79942366D01*
X61094294Y-79505377D01*
X61531754Y-79505377D01*
X61531754Y-79942366D01*
G37*
G36*
X61094294Y-79505377D02*
G01*
X60656835Y-79505377D01*
X60656835Y-78631398D01*
X61094294Y-78631398D01*
X61094294Y-79505377D01*
G37*
G36*
X72905705Y-78194409D02*
G01*
X72468245Y-78194409D01*
X72468245Y-77320430D01*
X72905705Y-77320430D01*
X72905705Y-78194409D01*
G37*
G36*
X61531754Y-78194409D02*
G01*
X61094294Y-78194409D01*
X61094294Y-77757420D01*
X61531754Y-77757420D01*
X61531754Y-78194409D01*
G37*
G36*
X61969214Y-77757420D02*
G01*
X61531754Y-77757420D01*
X61531754Y-77320430D01*
X61969214Y-77320430D01*
X61969214Y-77757420D01*
G37*
G36*
X67656189Y-75135484D02*
G01*
X67218729Y-75135484D01*
X67218729Y-74698495D01*
X67656189Y-74698495D01*
X67656189Y-75135484D01*
G37*
G36*
X71593326Y-76009463D02*
G01*
X71593326Y-75572473D01*
X72030785Y-75572473D01*
X73343164Y-75572473D01*
X73343164Y-74261506D01*
X72030785Y-74261506D01*
X72030785Y-75572473D01*
X71593326Y-75572473D01*
X71593326Y-73824516D01*
X73780624Y-73824516D01*
X73780624Y-76009463D01*
X71593326Y-76009463D01*
G37*
G36*
X60219375Y-76009463D02*
G01*
X60219375Y-75572473D01*
X60656835Y-75572473D01*
X61969214Y-75572473D01*
X61969214Y-74261506D01*
X60656835Y-74261506D01*
X60656835Y-75572473D01*
X60219375Y-75572473D01*
X60219375Y-73824516D01*
X62406673Y-73824516D01*
X62406673Y-76009463D01*
X60219375Y-76009463D01*
G37*
%TD*%
D10*
%TO.C,D10*%
X129972258Y-144897496D03*
D11*
X128916908Y-145603991D03*
X127861557Y-146310487D03*
X126806207Y-147016982D03*
%TD*%
D12*
%TO.C,R4*%
X116250000Y-69000000D03*
D13*
X116250000Y-58840000D03*
%TD*%
D14*
%TO.C,D6*%
X58029219Y-134031652D03*
D15*
X57228261Y-133046073D03*
X56427302Y-132060494D03*
X55626344Y-131074915D03*
%TD*%
D16*
%TO.C,D19*%
X92100000Y-106100000D03*
D17*
X93370000Y-106100000D03*
X94640000Y-106100000D03*
X95910000Y-106100000D03*
%TD*%
D16*
%TO.C,D20*%
X104200000Y-106100000D03*
D17*
X105470000Y-106100000D03*
X106740000Y-106100000D03*
X108010000Y-106100000D03*
%TD*%
D12*
%TO.C,R5*%
X123900000Y-126100000D03*
D13*
X123900000Y-136260000D03*
%TD*%
D18*
%TO.C,D16*%
X117698266Y-49007438D03*
D19*
X118897624Y-49425099D03*
X120096982Y-49842759D03*
X121296340Y-50260420D03*
%TD*%
D16*
%TO.C,D17*%
X92100000Y-95100000D03*
D17*
X93370000Y-95100000D03*
X94640000Y-95100000D03*
X95910000Y-95100000D03*
%TD*%
D12*
%TO.C,R7*%
X83500000Y-68830000D03*
D13*
X83500000Y-58670000D03*
%TD*%
D16*
%TO.C,D18*%
X104200000Y-95100000D03*
D17*
X105470000Y-95100000D03*
X106740000Y-95100000D03*
X108010000Y-95100000D03*
%TD*%
D20*
%TO.C,D5*%
X48564795Y-116591332D03*
D21*
X48174452Y-115382807D03*
X47784109Y-114174282D03*
X47393766Y-112965757D03*
%TD*%
D22*
%TO.C,SW2*%
X130000000Y-120500000D03*
X136500000Y-120500000D03*
X130000000Y-125000000D03*
X136500000Y-125000000D03*
%TD*%
D23*
%TO.C,J3*%
X124725000Y-109725000D03*
D24*
X127265000Y-109725000D03*
X124725000Y-112265000D03*
X127265000Y-112265000D03*
X124725000Y-114805000D03*
X127265000Y-114805000D03*
%TD*%
D22*
%TO.C,C3*%
X117150000Y-138100000D03*
X109650000Y-138100000D03*
%TD*%
D25*
%TO.C,D12*%
X152381515Y-112965972D03*
D26*
X152076425Y-114198782D03*
X151771336Y-115431592D03*
X151466246Y-116664402D03*
%TD*%
D27*
%TO.C,D1*%
X78702036Y-50369216D03*
D28*
X79869338Y-49868910D03*
X81036640Y-49368604D03*
X82203942Y-48868297D03*
%TD*%
D13*
%TO.C,R2*%
X78500000Y-60340000D03*
D12*
X78500000Y-70500000D03*
%TD*%
D29*
%TO.C,D8*%
X91895849Y-153401524D03*
D30*
X90640128Y-153211614D03*
X89384408Y-153021704D03*
X88128687Y-152831794D03*
%TD*%
D12*
%TO.C,R3*%
X121250000Y-70500000D03*
D13*
X121250000Y-60340000D03*
%TD*%
D31*
%TO.C,U1*%
X116020000Y-90000000D03*
D32*
X116020000Y-87460000D03*
X116020000Y-84920000D03*
%TD*%
D23*
%TO.C,J1*%
X91125000Y-77775000D03*
D24*
X93665000Y-77775000D03*
X96205000Y-77775000D03*
X98745000Y-77775000D03*
X101285000Y-77775000D03*
X103825000Y-77775000D03*
X106365000Y-77775000D03*
X108905000Y-77775000D03*
%TD*%
D12*
%TO.C,R6*%
X105580000Y-87250000D03*
D13*
X95420000Y-87250000D03*
%TD*%
D33*
%TO.C,D7*%
X73146895Y-146881881D03*
D34*
X72044833Y-146250724D03*
X70942771Y-145619567D03*
X69840709Y-144988410D03*
%TD*%
D35*
%TO.C,SW1*%
X134995600Y-73679937D03*
D36*
X136695192Y-75567525D03*
%TD*%
D37*
%TO.C,D14*%
X147427862Y-74265277D03*
D38*
X148033854Y-75381375D03*
X148639845Y-76497472D03*
X149245837Y-77613570D03*
%TD*%
D39*
%TO.C,D2*%
X62206663Y-61391611D03*
D40*
X63114043Y-60503039D03*
X64021424Y-59614466D03*
X64928804Y-58725894D03*
%TD*%
D41*
%TO.C,SW3*%
X73400000Y-123300000D03*
D13*
X73400000Y-120760000D03*
X73400000Y-118220000D03*
X73400000Y-115680000D03*
X65780000Y-115680000D03*
X65780000Y-118220000D03*
X65780000Y-120760000D03*
X65780000Y-123300000D03*
%TD*%
D42*
%TO.C,D13*%
X153520786Y-93154143D03*
D43*
X153682158Y-94413849D03*
X153843530Y-95673555D03*
X154004902Y-96933261D03*
%TD*%
D44*
%TO.C,C1*%
X84300000Y-113400000D03*
D45*
X84300000Y-85400000D03*
%TD*%
D46*
%TO.C,D9*%
X111723763Y-152709117D03*
D47*
X110484349Y-152986159D03*
X109244934Y-153263201D03*
X108005520Y-153540243D03*
%TD*%
D12*
%TO.C,R1*%
X142300000Y-120400000D03*
D13*
X142300000Y-110240000D03*
%TD*%
D23*
%TO.C,J2*%
X135200000Y-109725000D03*
D24*
X135200000Y-112265000D03*
%TD*%
D22*
%TO.C,C2*%
X89650000Y-138100000D03*
X82150000Y-138100000D03*
%TD*%
D48*
%TO.C,D15*%
X134922340Y-58852324D03*
D49*
X135889494Y-59675436D03*
X136856647Y-60498549D03*
X137823801Y-61321661D03*
%TD*%
D50*
%TO.C,D3*%
X50806757Y-77639360D03*
D51*
X51333417Y-76483709D03*
X51860078Y-75328058D03*
X52386738Y-74172408D03*
%TD*%
D52*
%TO.C,D4*%
X46046296Y-96907235D03*
D53*
X46119402Y-95639341D03*
X46192509Y-94371447D03*
X46265615Y-93103553D03*
%TD*%
D54*
%TO.C,D11*%
X144156721Y-131024014D03*
D55*
X143426464Y-132063064D03*
X142696208Y-133102114D03*
X141965951Y-134141164D03*
%TD*%
D56*
%TO.C,Y1*%
X97100000Y-136500000D03*
X102100000Y-136500000D03*
%TD*%
D41*
%TO.C,U2*%
X82500000Y-129800000D03*
D13*
X85040000Y-129800000D03*
X87580000Y-129800000D03*
X90120000Y-129800000D03*
X92660000Y-129800000D03*
X95200000Y-129800000D03*
X97740000Y-129800000D03*
X100280000Y-129800000D03*
X102820000Y-129800000D03*
X105360000Y-129800000D03*
X107900000Y-129800000D03*
X110440000Y-129800000D03*
X112980000Y-129800000D03*
X115520000Y-129800000D03*
X115520000Y-122180000D03*
X112980000Y-122180000D03*
X110440000Y-122180000D03*
X107900000Y-122180000D03*
X105360000Y-122180000D03*
X102820000Y-122180000D03*
X100280000Y-122180000D03*
X97740000Y-122180000D03*
X95200000Y-122180000D03*
X92660000Y-122180000D03*
X90120000Y-122180000D03*
X87580000Y-122180000D03*
X85040000Y-122180000D03*
X82500000Y-122180000D03*
%TD*%
M02*
