%TF.GenerationSoftware,KiCad,Pcbnew,(6.0.9)*%
%TF.CreationDate,2022-11-13T20:23:47+01:00*%
%TF.ProjectId,afm_saucer,61666d5f-7361-4756-9365-722e6b696361,rev?*%
%TF.SameCoordinates,Original*%
%TF.FileFunction,Copper,L2,Bot*%
%TF.FilePolarity,Positive*%
%FSLAX46Y46*%
G04 Gerber Fmt 4.6, Leading zero omitted, Abs format (unit mm)*
G04 Created by KiCad (PCBNEW (6.0.9)) date 2022-11-13 20:23:47*
%MOMM*%
%LPD*%
G01*
G04 APERTURE LIST*
G04 Aperture macros list*
%AMHorizOval*
0 Thick line with rounded ends*
0 $1 width*
0 $2 $3 position (X,Y) of the first rounded end (center of the circle)*
0 $4 $5 position (X,Y) of the second rounded end (center of the circle)*
0 Add line between two ends*
20,1,$1,$2,$3,$4,$5,0*
0 Add two circle primitives to create the rounded ends*
1,1,$1,$2,$3*
1,1,$1,$4,$5*%
%AMRotRect*
0 Rectangle, with rotation*
0 The origin of the aperture is its center*
0 $1 length*
0 $2 width*
0 $3 Rotation angle, in degrees counterclockwise*
0 Add horizontal line*
21,1,$1,$2,0,0,$3*%
G04 Aperture macros list end*
%TA.AperFunction,ComponentPad*%
%ADD10R,1.700000X1.700000*%
%TD*%
%TA.AperFunction,ComponentPad*%
%ADD11O,1.700000X1.700000*%
%TD*%
%TA.AperFunction,ComponentPad*%
%ADD12RotRect,1.070000X1.800000X23.200000*%
%TD*%
%TA.AperFunction,ComponentPad*%
%ADD13HorizOval,1.070000X-0.143789X0.335484X0.143789X-0.335484X0*%
%TD*%
%TA.AperFunction,ComponentPad*%
%ADD14RotRect,1.070000X1.800000X213.800000*%
%TD*%
%TA.AperFunction,ComponentPad*%
%ADD15HorizOval,1.070000X-0.203048X0.303309X0.203048X-0.303309X0*%
%TD*%
%TA.AperFunction,ComponentPad*%
%ADD16C,1.600000*%
%TD*%
%TA.AperFunction,ComponentPad*%
%ADD17O,1.600000X1.600000*%
%TD*%
%TA.AperFunction,ComponentPad*%
%ADD18RotRect,1.070000X1.800000X129.100000*%
%TD*%
%TA.AperFunction,ComponentPad*%
%ADD19HorizOval,1.070000X0.283257X0.230197X-0.283257X-0.230197X0*%
%TD*%
%TA.AperFunction,ComponentPad*%
%ADD20R,1.070000X1.800000*%
%TD*%
%TA.AperFunction,ComponentPad*%
%ADD21O,1.070000X1.800000*%
%TD*%
%TA.AperFunction,ComponentPad*%
%ADD22RotRect,1.070000X1.800000X340.800000*%
%TD*%
%TA.AperFunction,ComponentPad*%
%ADD23HorizOval,1.070000X-0.120036X-0.344697X0.120036X0.344697X0*%
%TD*%
%TA.AperFunction,ComponentPad*%
%ADD24RotRect,1.070000X1.800000X107.900000*%
%TD*%
%TA.AperFunction,ComponentPad*%
%ADD25HorizOval,1.070000X0.347332X0.112185X-0.347332X-0.112185X0*%
%TD*%
%TA.AperFunction,ComponentPad*%
%ADD26C,2.000000*%
%TD*%
%TA.AperFunction,ComponentPad*%
%ADD27RotRect,1.070000X1.800000X256.100000*%
%TD*%
%TA.AperFunction,ComponentPad*%
%ADD28HorizOval,1.070000X-0.354312X0.087683X0.354312X-0.087683X0*%
%TD*%
%TA.AperFunction,ComponentPad*%
%ADD29RotRect,1.070000X1.800000X171.400000*%
%TD*%
%TA.AperFunction,ComponentPad*%
%ADD30HorizOval,1.070000X0.054580X0.360896X-0.054580X-0.360896X0*%
%TD*%
%TA.AperFunction,ComponentPad*%
%ADD31R,1.800000X1.800000*%
%TD*%
%TA.AperFunction,ComponentPad*%
%ADD32C,1.800000*%
%TD*%
%TA.AperFunction,ComponentPad*%
%ADD33RotRect,1.070000X1.800000X150.200000*%
%TD*%
%TA.AperFunction,ComponentPad*%
%ADD34HorizOval,1.070000X0.181395X0.316734X-0.181395X-0.316734X0*%
%TD*%
%TA.AperFunction,ComponentPad*%
%ADD35RotRect,1.070000X1.800000X298.500000*%
%TD*%
%TA.AperFunction,ComponentPad*%
%ADD36HorizOval,1.070000X-0.320768X-0.174163X0.320768X0.174163X0*%
%TD*%
%TA.AperFunction,ComponentPad*%
%ADD37RotRect,1.070000X1.800000X44.400000*%
%TD*%
%TA.AperFunction,ComponentPad*%
%ADD38HorizOval,1.070000X-0.255377X0.260783X0.255377X-0.260783X0*%
%TD*%
%TA.AperFunction,ComponentPad*%
%ADD39R,1.600000X1.600000*%
%TD*%
%TA.AperFunction,ComponentPad*%
%ADD40RotRect,1.070000X1.800000X277.300000*%
%TD*%
%TA.AperFunction,ComponentPad*%
%ADD41HorizOval,1.070000X-0.362041X-0.046379X0.362041X0.046379X0*%
%TD*%
%TA.AperFunction,ComponentPad*%
%ADD42R,2.400000X2.400000*%
%TD*%
%TA.AperFunction,ComponentPad*%
%ADD43O,2.400000X2.400000*%
%TD*%
%TA.AperFunction,ComponentPad*%
%ADD44RotRect,1.070000X1.800000X192.600000*%
%TD*%
%TA.AperFunction,ComponentPad*%
%ADD45HorizOval,1.070000X-0.079622X0.356210X0.079622X-0.356210X0*%
%TD*%
%TA.AperFunction,ComponentPad*%
%ADD46RotRect,1.070000X1.800000X319.600000*%
%TD*%
%TA.AperFunction,ComponentPad*%
%ADD47HorizOval,1.070000X-0.236564X-0.277961X0.236564X0.277961X0*%
%TD*%
%TA.AperFunction,ComponentPad*%
%ADD48RotRect,1.070000X1.800000X65.500000*%
%TD*%
%TA.AperFunction,ComponentPad*%
%ADD49HorizOval,1.070000X-0.332136X0.151363X0.332136X-0.151363X0*%
%TD*%
%TA.AperFunction,ComponentPad*%
%ADD50RotRect,1.070000X1.800000X86.700000*%
%TD*%
%TA.AperFunction,ComponentPad*%
%ADD51HorizOval,1.070000X-0.364395X0.021011X0.364395X-0.021011X0*%
%TD*%
%TA.AperFunction,ComponentPad*%
%ADD52RotRect,1.070000X1.800000X234.900000*%
%TD*%
%TA.AperFunction,ComponentPad*%
%ADD53HorizOval,1.070000X-0.298625X0.209877X0.298625X-0.209877X0*%
%TD*%
%TA.AperFunction,ComponentPad*%
%ADD54C,1.500000*%
%TD*%
%TA.AperFunction,ViaPad*%
%ADD55C,0.800000*%
%TD*%
%TA.AperFunction,Conductor*%
%ADD56C,0.500000*%
%TD*%
%TA.AperFunction,Conductor*%
%ADD57C,0.750000*%
%TD*%
G04 APERTURE END LIST*
D10*
%TO.P,J2,1,Pin_1*%
%TO.N,/RX*%
X135200000Y-109725000D03*
D11*
%TO.P,J2,2,Pin_2*%
%TO.N,/TX*%
X135200000Y-112265000D03*
%TD*%
D12*
%TO.P,D1,1,DO*%
%TO.N,Net-(D1-Pad1)*%
X78702036Y-50369216D03*
D13*
%TO.P,D1,2,GND*%
%TO.N,GND*%
X79869338Y-49868910D03*
%TO.P,D1,3,VDD*%
%TO.N,+5V*%
X81036640Y-49368604D03*
%TO.P,D1,4,DI*%
%TO.N,Net-(D1-Pad4)*%
X82203942Y-48868297D03*
%TD*%
D14*
%TO.P,D10,1,DO*%
%TO.N,Net-(D11-Pad4)*%
X129972258Y-144897496D03*
D15*
%TO.P,D10,2,GND*%
%TO.N,GND*%
X128916908Y-145603991D03*
%TO.P,D10,3,VDD*%
%TO.N,+5V*%
X127861557Y-146310487D03*
%TO.P,D10,4,DI*%
%TO.N,Net-(D9-Pad1)*%
X126806207Y-147016982D03*
%TD*%
D16*
%TO.P,R4,1*%
%TO.N,/DATA*%
X116250000Y-69000000D03*
D17*
%TO.P,R4,2*%
%TO.N,+5V*%
X116250000Y-58840000D03*
%TD*%
D18*
%TO.P,D6,1,DO*%
%TO.N,Net-(D7-Pad4)*%
X58029219Y-134031652D03*
D19*
%TO.P,D6,2,GND*%
%TO.N,GND*%
X57228261Y-133046073D03*
%TO.P,D6,3,VDD*%
%TO.N,+5V*%
X56427302Y-132060494D03*
%TO.P,D6,4,DI*%
%TO.N,Net-(D5-Pad1)*%
X55626344Y-131074915D03*
%TD*%
D20*
%TO.P,D19,1,DO*%
%TO.N,Net-(D19-Pad1)*%
X92100000Y-106100000D03*
D21*
%TO.P,D19,2,GND*%
%TO.N,GND*%
X93370000Y-106100000D03*
%TO.P,D19,3,VDD*%
%TO.N,+5V*%
X94640000Y-106100000D03*
%TO.P,D19,4,DI*%
%TO.N,Net-(D18-Pad1)*%
X95910000Y-106100000D03*
%TD*%
D20*
%TO.P,D20,1,DO*%
%TO.N,unconnected-(D20-Pad1)*%
X104200000Y-106100000D03*
D21*
%TO.P,D20,2,GND*%
%TO.N,GND*%
X105470000Y-106100000D03*
%TO.P,D20,3,VDD*%
%TO.N,+5V*%
X106740000Y-106100000D03*
%TO.P,D20,4,DI*%
%TO.N,Net-(D19-Pad1)*%
X108010000Y-106100000D03*
%TD*%
D16*
%TO.P,R5,1*%
%TO.N,Net-(R5-Pad1)*%
X123900000Y-126100000D03*
D17*
%TO.P,R5,2*%
%TO.N,+5V*%
X123900000Y-136260000D03*
%TD*%
D22*
%TO.P,D16,1,DO*%
%TO.N,unconnected-(D16-Pad1)*%
X117698266Y-49007438D03*
D23*
%TO.P,D16,2,GND*%
%TO.N,GND*%
X118897624Y-49425099D03*
%TO.P,D16,3,VDD*%
%TO.N,+5V*%
X120096982Y-49842759D03*
%TO.P,D16,4,DI*%
%TO.N,Net-(D15-Pad1)*%
X121296340Y-50260420D03*
%TD*%
D20*
%TO.P,D17,1,DO*%
%TO.N,Net-(D18-Pad4)*%
X92100000Y-95100000D03*
D21*
%TO.P,D17,2,GND*%
%TO.N,GND*%
X93370000Y-95100000D03*
%TO.P,D17,3,VDD*%
%TO.N,+5V*%
X94640000Y-95100000D03*
%TO.P,D17,4,DI*%
%TO.N,Net-(D17-Pad4)*%
X95910000Y-95100000D03*
%TD*%
D16*
%TO.P,R7,1*%
%TO.N,Net-(R7-Pad1)*%
X83500000Y-68830000D03*
D17*
%TO.P,R7,2*%
%TO.N,Net-(D1-Pad4)*%
X83500000Y-58670000D03*
%TD*%
D20*
%TO.P,D18,1,DO*%
%TO.N,Net-(D18-Pad1)*%
X104200000Y-95100000D03*
D21*
%TO.P,D18,2,GND*%
%TO.N,GND*%
X105470000Y-95100000D03*
%TO.P,D18,3,VDD*%
%TO.N,+5V*%
X106740000Y-95100000D03*
%TO.P,D18,4,DI*%
%TO.N,Net-(D18-Pad4)*%
X108010000Y-95100000D03*
%TD*%
D24*
%TO.P,D5,1,DO*%
%TO.N,Net-(D5-Pad1)*%
X48564795Y-116591332D03*
D25*
%TO.P,D5,2,GND*%
%TO.N,GND*%
X48174452Y-115382807D03*
%TO.P,D5,3,VDD*%
%TO.N,+5V*%
X47784109Y-114174282D03*
%TO.P,D5,4,DI*%
%TO.N,Net-(D4-Pad1)*%
X47393766Y-112965757D03*
%TD*%
D26*
%TO.P,SW2,1,1*%
%TO.N,/RESET*%
X130000000Y-120500000D03*
X136500000Y-120500000D03*
%TO.P,SW2,2,2*%
%TO.N,GND*%
X130000000Y-125000000D03*
X136500000Y-125000000D03*
%TD*%
D10*
%TO.P,J3,1,Pin_1*%
%TO.N,/MISO*%
X124725000Y-109725000D03*
D11*
%TO.P,J3,2,Pin_2*%
%TO.N,+5V*%
X127265000Y-109725000D03*
%TO.P,J3,3,Pin_3*%
%TO.N,/SCK*%
X124725000Y-112265000D03*
%TO.P,J3,4,Pin_4*%
%TO.N,/MOSI*%
X127265000Y-112265000D03*
%TO.P,J3,5,Pin_5*%
%TO.N,/RESET*%
X124725000Y-114805000D03*
%TO.P,J3,6,Pin_6*%
%TO.N,GND*%
X127265000Y-114805000D03*
%TD*%
D26*
%TO.P,C3,1*%
%TO.N,Net-(C3-Pad1)*%
X117150000Y-138100000D03*
%TO.P,C3,2*%
%TO.N,GND*%
X109650000Y-138100000D03*
%TD*%
D27*
%TO.P,D12,1,DO*%
%TO.N,Net-(D12-Pad1)*%
X152381515Y-112965972D03*
D28*
%TO.P,D12,2,GND*%
%TO.N,GND*%
X152076425Y-114198782D03*
%TO.P,D12,3,VDD*%
%TO.N,+5V*%
X151771336Y-115431592D03*
%TO.P,D12,4,DI*%
%TO.N,Net-(D11-Pad1)*%
X151466246Y-116664402D03*
%TD*%
D16*
%TO.P,R2,1*%
%TO.N,/CLK*%
X78500000Y-70500000D03*
D17*
%TO.P,R2,2*%
%TO.N,+5V*%
X78500000Y-60340000D03*
%TD*%
D29*
%TO.P,D8,1,DO*%
%TO.N,Net-(D8-Pad1)*%
X91895849Y-153401524D03*
D30*
%TO.P,D8,2,GND*%
%TO.N,GND*%
X90640128Y-153211614D03*
%TO.P,D8,3,VDD*%
%TO.N,+5V*%
X89384408Y-153021704D03*
%TO.P,D8,4,DI*%
%TO.N,Net-(D7-Pad1)*%
X88128687Y-152831794D03*
%TD*%
D16*
%TO.P,R3,1*%
%TO.N,/FLASH*%
X121250000Y-70500000D03*
D17*
%TO.P,R3,2*%
%TO.N,+5V*%
X121250000Y-60340000D03*
%TD*%
D31*
%TO.P,U1,1,IN*%
%TO.N,+12V*%
X116020000Y-90000000D03*
D32*
%TO.P,U1,2,GND*%
%TO.N,GND*%
X116020000Y-87460000D03*
%TO.P,U1,3,OUT*%
%TO.N,+5V*%
X116020000Y-84920000D03*
%TD*%
D10*
%TO.P,J1,1,Pin_1*%
%TO.N,+12V*%
X91125000Y-77775000D03*
D11*
%TO.P,J1,2,Pin_2*%
%TO.N,GND*%
X93665000Y-77775000D03*
%TO.P,J1,3,Pin_3*%
%TO.N,unconnected-(J1-Pad3)*%
X96205000Y-77775000D03*
%TO.P,J1,4,Pin_4*%
%TO.N,/CLK*%
X98745000Y-77775000D03*
%TO.P,J1,5,Pin_5*%
%TO.N,/DATA*%
X101285000Y-77775000D03*
%TO.P,J1,6,Pin_6*%
%TO.N,unconnected-(J1-Pad6)*%
X103825000Y-77775000D03*
%TO.P,J1,7,Pin_7*%
%TO.N,/FLASH*%
X106365000Y-77775000D03*
%TO.P,J1,8,Pin_8*%
%TO.N,unconnected-(J1-Pad8)*%
X108905000Y-77775000D03*
%TD*%
D16*
%TO.P,R6,1*%
%TO.N,Net-(R6-Pad1)*%
X105580000Y-87250000D03*
D17*
%TO.P,R6,2*%
%TO.N,Net-(D17-Pad4)*%
X95420000Y-87250000D03*
%TD*%
D33*
%TO.P,D7,1,DO*%
%TO.N,Net-(D7-Pad1)*%
X73146895Y-146881881D03*
D34*
%TO.P,D7,2,GND*%
%TO.N,GND*%
X72044833Y-146250724D03*
%TO.P,D7,3,VDD*%
%TO.N,+5V*%
X70942771Y-145619567D03*
%TO.P,D7,4,DI*%
%TO.N,Net-(D7-Pad4)*%
X69840709Y-144988410D03*
%TD*%
D10*
%TO.P,SW1,1,1*%
%TO.N,GND*%
X114250000Y-116125000D03*
D11*
%TO.P,SW1,2,2*%
%TO.N,Net-(R5-Pad1)*%
X116790000Y-116125000D03*
%TD*%
D35*
%TO.P,D14,1,DO*%
%TO.N,Net-(D15-Pad4)*%
X147427862Y-74265277D03*
D36*
%TO.P,D14,2,GND*%
%TO.N,GND*%
X148033854Y-75381375D03*
%TO.P,D14,3,VDD*%
%TO.N,+5V*%
X148639845Y-76497472D03*
%TO.P,D14,4,DI*%
%TO.N,Net-(D13-Pad1)*%
X149245837Y-77613570D03*
%TD*%
D37*
%TO.P,D2,1,DO*%
%TO.N,Net-(D3-Pad4)*%
X62206663Y-61391611D03*
D38*
%TO.P,D2,2,GND*%
%TO.N,GND*%
X63114043Y-60503039D03*
%TO.P,D2,3,VDD*%
%TO.N,+5V*%
X64021424Y-59614466D03*
%TO.P,D2,4,DI*%
%TO.N,Net-(D1-Pad1)*%
X64928804Y-58725894D03*
%TD*%
D39*
%TO.P,SW3,1*%
%TO.N,Net-(U2-Pad23)*%
X73400000Y-123300000D03*
D17*
%TO.P,SW3,2*%
%TO.N,Net-(U2-Pad24)*%
X73400000Y-120760000D03*
%TO.P,SW3,3*%
%TO.N,Net-(U2-Pad25)*%
X73400000Y-118220000D03*
%TO.P,SW3,4*%
%TO.N,Net-(U2-Pad26)*%
X73400000Y-115680000D03*
%TO.P,SW3,5*%
%TO.N,GND*%
X65780000Y-115680000D03*
%TO.P,SW3,6*%
X65780000Y-118220000D03*
%TO.P,SW3,7*%
X65780000Y-120760000D03*
%TO.P,SW3,8*%
X65780000Y-123300000D03*
%TD*%
D40*
%TO.P,D13,1,DO*%
%TO.N,Net-(D13-Pad1)*%
X153520786Y-93154143D03*
D41*
%TO.P,D13,2,GND*%
%TO.N,GND*%
X153682158Y-94413849D03*
%TO.P,D13,3,VDD*%
%TO.N,+5V*%
X153843530Y-95673555D03*
%TO.P,D13,4,DI*%
%TO.N,Net-(D12-Pad1)*%
X154004902Y-96933261D03*
%TD*%
D42*
%TO.P,C1,1*%
%TO.N,+5V*%
X84300000Y-113400000D03*
D43*
%TO.P,C1,2*%
%TO.N,GND*%
X84300000Y-85400000D03*
%TD*%
D44*
%TO.P,D9,1,DO*%
%TO.N,Net-(D9-Pad1)*%
X111723763Y-152709117D03*
D45*
%TO.P,D9,2,GND*%
%TO.N,GND*%
X110484349Y-152986159D03*
%TO.P,D9,3,VDD*%
%TO.N,+5V*%
X109244934Y-153263201D03*
%TO.P,D9,4,DI*%
%TO.N,Net-(D8-Pad1)*%
X108005520Y-153540243D03*
%TD*%
D16*
%TO.P,R1,1*%
%TO.N,/RESET*%
X142300000Y-120400000D03*
D17*
%TO.P,R1,2*%
%TO.N,+5V*%
X142300000Y-110240000D03*
%TD*%
D26*
%TO.P,C2,1*%
%TO.N,Net-(C2-Pad1)*%
X89650000Y-138100000D03*
%TO.P,C2,2*%
%TO.N,GND*%
X82150000Y-138100000D03*
%TD*%
D46*
%TO.P,D15,1,DO*%
%TO.N,Net-(D15-Pad1)*%
X134922340Y-58852324D03*
D47*
%TO.P,D15,2,GND*%
%TO.N,GND*%
X135889494Y-59675436D03*
%TO.P,D15,3,VDD*%
%TO.N,+5V*%
X136856647Y-60498549D03*
%TO.P,D15,4,DI*%
%TO.N,Net-(D15-Pad4)*%
X137823801Y-61321661D03*
%TD*%
D48*
%TO.P,D3,1,DO*%
%TO.N,Net-(D3-Pad1)*%
X50806757Y-77639360D03*
D49*
%TO.P,D3,2,GND*%
%TO.N,GND*%
X51333417Y-76483709D03*
%TO.P,D3,3,VDD*%
%TO.N,+5V*%
X51860078Y-75328058D03*
%TO.P,D3,4,DI*%
%TO.N,Net-(D3-Pad4)*%
X52386738Y-74172408D03*
%TD*%
D50*
%TO.P,D4,1,DO*%
%TO.N,Net-(D4-Pad1)*%
X46046296Y-96907235D03*
D51*
%TO.P,D4,2,GND*%
%TO.N,GND*%
X46119402Y-95639341D03*
%TO.P,D4,3,VDD*%
%TO.N,+5V*%
X46192509Y-94371447D03*
%TO.P,D4,4,DI*%
%TO.N,Net-(D3-Pad1)*%
X46265615Y-93103553D03*
%TD*%
D52*
%TO.P,D11,1,DO*%
%TO.N,Net-(D11-Pad1)*%
X144156721Y-131024014D03*
D53*
%TO.P,D11,2,GND*%
%TO.N,GND*%
X143426464Y-132063064D03*
%TO.P,D11,3,VDD*%
%TO.N,+5V*%
X142696208Y-133102114D03*
%TO.P,D11,4,DI*%
%TO.N,Net-(D11-Pad4)*%
X141965951Y-134141164D03*
%TD*%
D54*
%TO.P,Y1,1,1*%
%TO.N,Net-(C3-Pad1)*%
X97100000Y-136500000D03*
%TO.P,Y1,2,2*%
%TO.N,Net-(C2-Pad1)*%
X102100000Y-136500000D03*
%TD*%
D39*
%TO.P,U2,1,~{RESET}/PC6*%
%TO.N,/RESET*%
X82500000Y-129800000D03*
D17*
%TO.P,U2,2,PD0*%
%TO.N,/RX*%
X85040000Y-129800000D03*
%TO.P,U2,3,PD1*%
%TO.N,/TX*%
X87580000Y-129800000D03*
%TO.P,U2,4,PD2*%
%TO.N,/CLK*%
X90120000Y-129800000D03*
%TO.P,U2,5,PD3*%
%TO.N,/FLASH*%
X92660000Y-129800000D03*
%TO.P,U2,6,PD4*%
%TO.N,/DATA*%
X95200000Y-129800000D03*
%TO.P,U2,7,VCC*%
%TO.N,+5V*%
X97740000Y-129800000D03*
%TO.P,U2,8,GND*%
%TO.N,GND*%
X100280000Y-129800000D03*
%TO.P,U2,9,XTAL1/PB6*%
%TO.N,Net-(C3-Pad1)*%
X102820000Y-129800000D03*
%TO.P,U2,10,XTAL2/PB7*%
%TO.N,Net-(C2-Pad1)*%
X105360000Y-129800000D03*
%TO.P,U2,11,PD5*%
%TO.N,Net-(R7-Pad1)*%
X107900000Y-129800000D03*
%TO.P,U2,12,PD6*%
%TO.N,Net-(R6-Pad1)*%
X110440000Y-129800000D03*
%TO.P,U2,13,PD7*%
%TO.N,Net-(R5-Pad1)*%
X112980000Y-129800000D03*
%TO.P,U2,14,PB0*%
%TO.N,unconnected-(U2-Pad14)*%
X115520000Y-129800000D03*
%TO.P,U2,15,PB1*%
%TO.N,unconnected-(U2-Pad15)*%
X115520000Y-122180000D03*
%TO.P,U2,16,PB2*%
%TO.N,unconnected-(U2-Pad16)*%
X112980000Y-122180000D03*
%TO.P,U2,17,PB3*%
%TO.N,/MOSI*%
X110440000Y-122180000D03*
%TO.P,U2,18,PB4*%
%TO.N,/MISO*%
X107900000Y-122180000D03*
%TO.P,U2,19,PB5*%
%TO.N,/SCK*%
X105360000Y-122180000D03*
%TO.P,U2,20,AVCC*%
%TO.N,+5V*%
X102820000Y-122180000D03*
%TO.P,U2,21,AREF*%
%TO.N,unconnected-(U2-Pad21)*%
X100280000Y-122180000D03*
%TO.P,U2,22,GND*%
%TO.N,GND*%
X97740000Y-122180000D03*
%TO.P,U2,23,PC0*%
%TO.N,Net-(U2-Pad23)*%
X95200000Y-122180000D03*
%TO.P,U2,24,PC1*%
%TO.N,Net-(U2-Pad24)*%
X92660000Y-122180000D03*
%TO.P,U2,25,PC2*%
%TO.N,Net-(U2-Pad25)*%
X90120000Y-122180000D03*
%TO.P,U2,26,PC3*%
%TO.N,Net-(U2-Pad26)*%
X87580000Y-122180000D03*
%TO.P,U2,27,PC4*%
%TO.N,unconnected-(U2-Pad27)*%
X85040000Y-122180000D03*
%TO.P,U2,28,PC5*%
%TO.N,unconnected-(U2-Pad28)*%
X82500000Y-122180000D03*
%TD*%
D55*
%TO.N,Net-(R7-Pad1)*%
X110000000Y-94100000D03*
%TO.N,Net-(R6-Pad1)*%
X112500000Y-105400000D03*
%TO.N,/CLK*%
X76200000Y-110100000D03*
%TO.N,/FLASH*%
X97700000Y-115800000D03*
%TD*%
D56*
%TO.N,/SCK*%
X105360000Y-122180000D02*
X107480000Y-124300000D01*
X107480000Y-124300000D02*
X122700000Y-124300000D01*
X122700000Y-124300000D02*
X130900000Y-116100000D01*
X130900000Y-116100000D02*
X130900000Y-109310051D01*
X130900000Y-109310051D02*
X128689949Y-107100000D01*
X128689949Y-107100000D02*
X125000000Y-107100000D01*
X125000000Y-107100000D02*
X123200000Y-108900000D01*
X123200000Y-108900000D02*
X123200000Y-110740000D01*
X123200000Y-110740000D02*
X124725000Y-112265000D01*
%TO.N,/MISO*%
X129900000Y-109300000D02*
X128500000Y-107900000D01*
X122170000Y-123430000D02*
X129900000Y-115700000D01*
X107900000Y-122180000D02*
X109150000Y-123430000D01*
X109150000Y-123430000D02*
X122170000Y-123430000D01*
X129900000Y-115700000D02*
X129900000Y-109300000D01*
X128500000Y-107900000D02*
X126550000Y-107900000D01*
X126550000Y-107900000D02*
X124725000Y-109725000D01*
%TO.N,/MOSI*%
X127265000Y-112265000D02*
X129200000Y-114200000D01*
X129200000Y-114200000D02*
X129200000Y-114800000D01*
X129200000Y-114800000D02*
X123700000Y-120300000D01*
X123700000Y-120300000D02*
X112320000Y-120300000D01*
X112320000Y-120300000D02*
X110440000Y-122180000D01*
%TO.N,GND*%
X124170000Y-117900000D02*
X115900000Y-117900000D01*
X127265000Y-114805000D02*
X124170000Y-117900000D01*
X115900000Y-117900000D02*
X114250000Y-116250000D01*
X114250000Y-116250000D02*
X114250000Y-116125000D01*
%TO.N,/RX*%
X135200000Y-109725000D02*
X134875000Y-109725000D01*
X134875000Y-109725000D02*
X133400000Y-111200000D01*
X133400000Y-111200000D02*
X133400000Y-125810050D01*
X133400000Y-125810050D02*
X131360050Y-127850000D01*
X131360050Y-127850000D02*
X86990000Y-127850000D01*
X86990000Y-127850000D02*
X85040000Y-129800000D01*
%TO.N,/TX*%
X87580000Y-129800000D02*
X88830000Y-128550000D01*
X88830000Y-128550000D02*
X131650000Y-128550000D01*
X135200000Y-114400000D02*
X135200000Y-112265000D01*
X131650000Y-128550000D02*
X134600000Y-125600000D01*
X134600000Y-125600000D02*
X134600000Y-115000000D01*
X134600000Y-115000000D02*
X135200000Y-114400000D01*
D57*
%TO.N,GND*%
X81200000Y-73300000D02*
X81200000Y-65400000D01*
X86600000Y-71700000D02*
X86600000Y-65400000D01*
X86600000Y-65400000D02*
X86600000Y-49200000D01*
X81200000Y-65400000D02*
X86600000Y-65400000D01*
X84300000Y-85400000D02*
X84300000Y-76400000D01*
X84300000Y-76400000D02*
X81200000Y-73300000D01*
D56*
%TO.N,Net-(R7-Pad1)*%
X95300000Y-84900000D02*
X83500000Y-73100000D01*
X83500000Y-73100000D02*
X83500000Y-68830000D01*
X110000000Y-94100000D02*
X100800000Y-84900000D01*
X100800000Y-84900000D02*
X95300000Y-84900000D01*
D57*
%TO.N,GND*%
X84300000Y-85400000D02*
X84300000Y-91000000D01*
X84300000Y-91000000D02*
X91730000Y-98430000D01*
D56*
X93370000Y-95100000D02*
X93370000Y-98430000D01*
X93370000Y-98430000D02*
X93370000Y-106100000D01*
D57*
X91730000Y-98430000D02*
X93370000Y-98430000D01*
D56*
%TO.N,Net-(R6-Pad1)*%
X112500000Y-94170000D02*
X112500000Y-105400000D01*
X112300000Y-93970000D02*
X112500000Y-94170000D01*
X105580000Y-87250000D02*
X112300000Y-93970000D01*
%TO.N,Net-(D18-Pad4)*%
X92100000Y-93400000D02*
X93000000Y-92500000D01*
X93000000Y-92500000D02*
X106700000Y-92500000D01*
X106700000Y-92500000D02*
X108010000Y-93810000D01*
%TO.N,GND*%
X93370000Y-94612000D02*
X94382000Y-93600000D01*
X105370000Y-93600000D02*
X105470000Y-93700000D01*
X93370000Y-95100000D02*
X93370000Y-94612000D01*
X94382000Y-93600000D02*
X105370000Y-93600000D01*
X105470000Y-93700000D02*
X105470000Y-95100000D01*
%TO.N,/CLK*%
X76200000Y-110100000D02*
X79500000Y-106800000D01*
X79500000Y-106800000D02*
X79500000Y-71500000D01*
X79500000Y-71500000D02*
X78500000Y-70500000D01*
%TO.N,/DATA*%
X81600000Y-131500000D02*
X95000000Y-131500000D01*
X95200000Y-131300000D02*
X95200000Y-129800000D01*
X95000000Y-131500000D02*
X95200000Y-131300000D01*
X101285000Y-77775000D02*
X104510000Y-81000000D01*
X104510000Y-81000000D02*
X117200000Y-81000000D01*
X117200000Y-81000000D02*
X120300000Y-84100000D01*
X120300000Y-84100000D02*
X120300000Y-99410050D01*
X108110050Y-111600000D02*
X89400000Y-111600000D01*
X78500000Y-120100000D02*
X78500000Y-128400000D01*
X120300000Y-99410050D02*
X108110050Y-111600000D01*
X89400000Y-111600000D02*
X84900000Y-116100000D01*
X78500000Y-128400000D02*
X81600000Y-131500000D01*
X84900000Y-116100000D02*
X82500000Y-116100000D01*
X82500000Y-116100000D02*
X78500000Y-120100000D01*
%TO.N,/FLASH*%
X97700000Y-115200000D02*
X97700000Y-115800000D01*
X100600000Y-112300000D02*
X97700000Y-115200000D01*
X121000000Y-99700000D02*
X108400000Y-112300000D01*
X121000000Y-83600000D02*
X121000000Y-99700000D01*
X108400000Y-112300000D02*
X100600000Y-112300000D01*
X106365000Y-77775000D02*
X108590000Y-80000000D01*
X108590000Y-80000000D02*
X117400000Y-80000000D01*
X117400000Y-80000000D02*
X121000000Y-83600000D01*
%TO.N,/RESET*%
X103800000Y-113500000D02*
X123420000Y-113500000D01*
X123420000Y-113500000D02*
X124725000Y-114805000D01*
X82500000Y-129800000D02*
X79200000Y-126500000D01*
X79200000Y-126500000D02*
X79200000Y-120400000D01*
X82800000Y-116800000D02*
X100500000Y-116800000D01*
X79200000Y-120400000D02*
X82800000Y-116800000D01*
X100500000Y-116800000D02*
X103800000Y-113500000D01*
%TO.N,GND*%
X114250000Y-116125000D02*
X103795000Y-116125000D01*
X103795000Y-116125000D02*
X97740000Y-122180000D01*
%TO.N,Net-(D19-Pad1)*%
X92100000Y-106100000D02*
X92100000Y-107800000D01*
X108010000Y-107690000D02*
X108010000Y-106100000D01*
X92100000Y-107800000D02*
X92600000Y-108300000D01*
X92600000Y-108300000D02*
X107400000Y-108300000D01*
X107400000Y-108300000D02*
X108010000Y-107690000D01*
%TO.N,Net-(D18-Pad4)*%
X92100000Y-95100000D02*
X92100000Y-93400000D01*
X108010000Y-93810000D02*
X108010000Y-95100000D01*
%TO.N,GND*%
X105470000Y-95100000D02*
X105470000Y-106100000D01*
X65780000Y-123300000D02*
X65780000Y-124494334D01*
X65780000Y-124494334D02*
X57228261Y-133046073D01*
X65780000Y-115680000D02*
X65780000Y-123300000D01*
X136500000Y-125000000D02*
X143426464Y-131926464D01*
X143426464Y-131926464D02*
X143426464Y-132063064D01*
X128916908Y-145603991D02*
X118322917Y-135010000D01*
X118322917Y-135010000D02*
X112740000Y-135010000D01*
X112740000Y-135010000D02*
X109650000Y-138100000D01*
X72044833Y-146250724D02*
X72044833Y-145755167D01*
X72044833Y-145755167D02*
X79700000Y-138100000D01*
X79700000Y-138100000D02*
X82150000Y-138100000D01*
X100280000Y-129800000D02*
X95880000Y-134200000D01*
X95880000Y-134200000D02*
X86050000Y-134200000D01*
X82150000Y-138100000D02*
X86050000Y-134200000D01*
%TO.N,Net-(C3-Pad1)*%
X97100000Y-136500000D02*
X100400000Y-139800000D01*
X100400000Y-139800000D02*
X115450000Y-139800000D01*
X115450000Y-139800000D02*
X117150000Y-138100000D01*
%TO.N,GND*%
X109650000Y-138100000D02*
X108580000Y-138100000D01*
X108580000Y-138100000D02*
X100280000Y-129800000D01*
%TO.N,/DATA*%
X116250000Y-69000000D02*
X111950000Y-73300000D01*
X111950000Y-73300000D02*
X105760000Y-73300000D01*
X105760000Y-73300000D02*
X101285000Y-77775000D01*
%TO.N,/FLASH*%
X106365000Y-77775000D02*
X109340000Y-74800000D01*
X109340000Y-74800000D02*
X116950000Y-74800000D01*
X116950000Y-74800000D02*
X121250000Y-70500000D01*
%TO.N,Net-(D1-Pad4)*%
X83500000Y-58670000D02*
X83500000Y-50164355D01*
X83500000Y-50164355D02*
X82203942Y-48868297D01*
%TO.N,Net-(D15-Pad1)*%
X134922340Y-58852324D02*
X129952324Y-58852324D01*
X129952324Y-58852324D02*
X121360420Y-50260420D01*
X121360420Y-50260420D02*
X121296340Y-50260420D01*
%TO.N,Net-(D15-Pad4)*%
X147427862Y-74265277D02*
X147427862Y-72927862D01*
X137823801Y-63323801D02*
X137823801Y-61321661D01*
X147427862Y-72927862D02*
X137823801Y-63323801D01*
%TO.N,Net-(D13-Pad1)*%
X153520786Y-93154143D02*
X149245837Y-88879194D01*
X149245837Y-88879194D02*
X149245837Y-77613570D01*
%TO.N,Net-(D12-Pad1)*%
X152381515Y-112965972D02*
X154004902Y-111342585D01*
X154004902Y-111342585D02*
X154004902Y-96933261D01*
%TO.N,Net-(D11-Pad1)*%
X144156721Y-131024014D02*
X144156721Y-123973927D01*
X144156721Y-123973927D02*
X151466246Y-116664402D01*
%TO.N,Net-(D11-Pad4)*%
X129972258Y-144897496D02*
X140728590Y-134141164D01*
X140728590Y-134141164D02*
X141965951Y-134141164D01*
%TO.N,Net-(D9-Pad1)*%
X111723763Y-152709117D02*
X117415898Y-147016982D01*
X117415898Y-147016982D02*
X126806207Y-147016982D01*
%TO.N,Net-(D8-Pad1)*%
X91895849Y-153401524D02*
X107866801Y-153401524D01*
X107866801Y-153401524D02*
X108005520Y-153540243D01*
%TO.N,Net-(D7-Pad1)*%
X73146895Y-146881881D02*
X79581881Y-146881881D01*
X79581881Y-146881881D02*
X85531794Y-152831794D01*
X85531794Y-152831794D02*
X88128687Y-152831794D01*
%TO.N,Net-(D7-Pad4)*%
X69840709Y-144988410D02*
X58883951Y-134031652D01*
X58883951Y-134031652D02*
X58029219Y-134031652D01*
%TO.N,Net-(D5-Pad1)*%
X55626344Y-131074915D02*
X55626344Y-123652881D01*
X55626344Y-123652881D02*
X48564795Y-116591332D01*
%TO.N,Net-(D4-Pad1)*%
X47393766Y-112965757D02*
X47393766Y-98254705D01*
X47393766Y-98254705D02*
X46046296Y-96907235D01*
%TO.N,Net-(D3-Pad1)*%
X46265615Y-93103553D02*
X46265615Y-90834385D01*
X46265615Y-90834385D02*
X50806757Y-86293243D01*
X50806757Y-86293243D02*
X50806757Y-77639360D01*
%TO.N,Net-(D3-Pad4)*%
X52386738Y-74172408D02*
X52386738Y-74113262D01*
X52386738Y-74113262D02*
X62206663Y-64293337D01*
X62206663Y-64293337D02*
X62206663Y-61391611D01*
%TO.N,Net-(D1-Pad1)*%
X64928804Y-58725894D02*
X70345358Y-58725894D01*
X70345358Y-58725894D02*
X78702036Y-50369216D01*
D57*
%TO.N,GND*%
X107400000Y-83900000D02*
X99790000Y-83900000D01*
X99790000Y-83900000D02*
X93665000Y-77775000D01*
X110960000Y-87460000D02*
X107400000Y-83900000D01*
X116020000Y-87460000D02*
X110960000Y-87460000D01*
X137700000Y-57600000D02*
X142600000Y-62500000D01*
X142600000Y-62500000D02*
X142600000Y-65600000D01*
X142600000Y-65600000D02*
X151100000Y-74100000D01*
X151100000Y-74100000D02*
X151100000Y-75200000D01*
D56*
X118897624Y-49425099D02*
X118897624Y-49102376D01*
X118897624Y-49102376D02*
X120900000Y-47100000D01*
X120900000Y-47100000D02*
X122300000Y-47100000D01*
D57*
X137700000Y-57600000D02*
X132800000Y-52700000D01*
D56*
X135889494Y-59675436D02*
X135889494Y-59410506D01*
X135889494Y-59410506D02*
X137700000Y-57600000D01*
D57*
X151100000Y-84900000D02*
X151100000Y-75200000D01*
D56*
X148033854Y-75381375D02*
X148215229Y-75200000D01*
X148215229Y-75200000D02*
X151100000Y-75200000D01*
D57*
X157100000Y-102500000D02*
X157100000Y-94300000D01*
D56*
X153682158Y-94413849D02*
X156986151Y-94413849D01*
D57*
X157100000Y-94300000D02*
X157100000Y-90900000D01*
D56*
X156986151Y-94413849D02*
X157100000Y-94300000D01*
D57*
X155300000Y-116600000D02*
X155300000Y-114200000D01*
X155300000Y-114200000D02*
X155300000Y-104300000D01*
D56*
X152076425Y-114198782D02*
X155298782Y-114198782D01*
X155298782Y-114198782D02*
X155300000Y-114200000D01*
X143426464Y-132063064D02*
X144263400Y-132900000D01*
X144263400Y-132900000D02*
X148300000Y-132900000D01*
D57*
X127100000Y-151100000D02*
X130550000Y-147650000D01*
D56*
X128916908Y-146016908D02*
X130550000Y-147650000D01*
D57*
X130550000Y-147650000D02*
X140200000Y-138000000D01*
D56*
X128916908Y-145603991D02*
X128916908Y-146016908D01*
X110484349Y-152986159D02*
X110484349Y-154484349D01*
X110484349Y-154484349D02*
X113000000Y-157000000D01*
D57*
X86500000Y-157000000D02*
X90100000Y-157000000D01*
X90100000Y-157000000D02*
X113000000Y-157000000D01*
D56*
X90640128Y-156459872D02*
X90100000Y-157000000D01*
X90640128Y-153211614D02*
X90640128Y-156459872D01*
D57*
X61000000Y-140200000D02*
X70350000Y-149550000D01*
X70350000Y-149550000D02*
X71600000Y-150800000D01*
D56*
X72044833Y-146250724D02*
X70350000Y-147945557D01*
X70350000Y-147945557D02*
X70350000Y-149550000D01*
D57*
X52000000Y-132100000D02*
X55000000Y-135100000D01*
X55000000Y-135100000D02*
X60100000Y-140200000D01*
D56*
X57228261Y-133046073D02*
X57053927Y-133046073D01*
X57053927Y-133046073D02*
X55000000Y-135100000D01*
D57*
X44700000Y-114700000D02*
X44700000Y-116500000D01*
X44700000Y-116500000D02*
X44700000Y-118500000D01*
D56*
X48174452Y-115382807D02*
X45817193Y-115382807D01*
X45817193Y-115382807D02*
X44700000Y-116500000D01*
D57*
X43100000Y-91600000D02*
X43100000Y-95500000D01*
X43100000Y-95500000D02*
X43100000Y-113100000D01*
D56*
X46119402Y-95639341D02*
X43239341Y-95639341D01*
X43239341Y-95639341D02*
X43100000Y-95500000D01*
D57*
X54400000Y-69400000D02*
X49150000Y-74650000D01*
X49150000Y-74650000D02*
X47000000Y-76800000D01*
D56*
X51333417Y-76483709D02*
X50983709Y-76483709D01*
X50983709Y-76483709D02*
X49150000Y-74650000D01*
D57*
X65900000Y-53700000D02*
X61100000Y-58500000D01*
X61100000Y-58500000D02*
X54400000Y-65200000D01*
D56*
X63114043Y-60503039D02*
X63103039Y-60503039D01*
X63103039Y-60503039D02*
X61100000Y-58500000D01*
D57*
X78700000Y-45800000D02*
X77900000Y-46600000D01*
D56*
X79869338Y-48569338D02*
X77900000Y-46600000D01*
D57*
X77900000Y-46600000D02*
X70800000Y-53700000D01*
D56*
X79869338Y-49868910D02*
X79869338Y-48569338D01*
D57*
X140200000Y-138000000D02*
X143200000Y-138000000D01*
X88700000Y-73800000D02*
X86600000Y-71700000D01*
X71600000Y-150800000D02*
X80300000Y-150800000D01*
X118900000Y-151100000D02*
X127100000Y-151100000D01*
X80300000Y-150800000D02*
X86500000Y-157000000D01*
X60100000Y-140200000D02*
X61000000Y-140200000D01*
X43100000Y-113100000D02*
X44700000Y-114700000D01*
X47000000Y-87700000D02*
X43100000Y-91600000D01*
X113000000Y-157000000D02*
X118900000Y-151100000D01*
X93665000Y-77775000D02*
X93665000Y-75265000D01*
X70800000Y-53700000D02*
X65900000Y-53700000D01*
X44700000Y-118500000D02*
X52000000Y-125800000D01*
X83200000Y-45800000D02*
X78700000Y-45800000D01*
X92200000Y-73800000D02*
X88700000Y-73800000D01*
X157100000Y-90900000D02*
X151100000Y-84900000D01*
X54400000Y-65200000D02*
X54400000Y-69400000D01*
X86600000Y-49200000D02*
X83200000Y-45800000D01*
X148300000Y-123600000D02*
X155300000Y-116600000D01*
X127900000Y-52700000D02*
X122300000Y-47100000D01*
X93665000Y-75265000D02*
X92200000Y-73800000D01*
X52000000Y-125800000D02*
X52000000Y-132100000D01*
X47000000Y-76800000D02*
X47000000Y-87700000D01*
X143200000Y-138000000D02*
X148300000Y-132900000D01*
X148300000Y-132900000D02*
X148300000Y-123600000D01*
X155300000Y-104300000D02*
X157100000Y-102500000D01*
X132800000Y-52700000D02*
X127900000Y-52700000D01*
%TD*%
M02*
